<svg width="727" height="707" viewBox="0 0 727 707" fill="none" xmlns="http://www.w3.org/2000/svg">
<path d="M373 651C542.551 651 680 513.551 680 344C680 174.449 542.551 37 373 37C203.449 37 66 174.449 66 344C66 513.551 203.449 651 373 651Z" fill="#EFE8E3"/>
<path d="M135.234 77.8763L135.234 77.8764C61.6978 136.096 15.2297 219.467 4.39841 312.624C-6.43284 405.78 19.6576 497.59 77.877 571.126C136.096 644.662 219.467 691.13 312.624 701.961C405.781 712.802 497.601 686.702 571.127 628.483C644.662 570.263 691.13 486.892 701.962 393.735C712.793 300.578 686.692 208.769 628.483 135.233L626.915 136.474L628.483 135.233C570.264 61.6972 486.893 15.2291 393.736 4.39785C300.579 -6.43342 208.769 19.6672 135.234 77.8763ZM139.616 83.4026C211.681 26.3518 301.641 0.782373 392.934 11.4011C484.227 22.0198 565.916 67.5517 622.967 139.616C680.018 211.68 705.587 301.64 694.968 392.933C684.35 484.227 638.818 565.916 566.754 622.966C494.69 680.017 404.729 705.587 313.436 694.968C222.143 684.349 140.454 638.817 83.4031 566.753C26.3524 494.689 0.782927 404.729 11.4016 313.436C22.0204 222.142 67.5523 140.453 139.616 83.4026Z" fill="#EFE8E3" stroke="#EFE8E3" stroke-width="4"/>
<path d="M43.8322 304.769L43.8321 304.769C33.2962 395.424 58.6891 484.761 115.336 556.323C171.983 627.885 253.114 673.096 343.769 683.642L343.942 682.152L343.769 683.642C434.424 694.178 523.761 668.785 595.323 612.138C666.885 555.491 712.096 474.36 722.642 383.705L721.152 383.532L722.642 383.705C733.178 293.05 707.785 203.713 651.138 132.151C594.491 60.5891 513.36 15.3781 422.705 4.83216L422.705 4.83215C332.05 -5.70377 242.713 19.6891 171.151 76.336C99.5891 132.983 54.3781 214.114 43.8322 304.769ZM174.853 81.0082C245.171 25.3451 332.944 0.398016 422.019 10.7521C511.094 21.1161 590.803 65.5351 646.466 135.843C702.129 206.161 727.076 293.934 716.722 383.009C706.368 472.084 661.939 551.793 591.631 607.456C521.313 663.119 433.54 688.066 344.465 677.712C255.391 667.358 175.681 622.929 120.018 552.621C64.3551 482.303 39.408 394.53 49.7621 305.455C60.1161 216.381 104.545 136.671 174.853 81.0082Z" fill="#DFD9D7" stroke="#DFD9D7" stroke-width="3"/>
<path d="M242.266 487.077L200.937 489C191.646 489 187 487.077 187 483.231C187 478.744 189.403 475.699 194.209 474.096C204.461 470.25 213.431 461.756 221.12 448.615C228.81 435.154 248.032 394.929 278.789 327.942C309.866 260.635 337.418 201.34 361.447 150.058C363.69 145.25 365.612 142.205 367.214 140.923C369.136 139.641 371.699 139 374.903 139C378.427 139 380.67 139.641 381.631 140.923C382.592 142.205 384.354 146.532 386.917 153.904C389.48 161.276 391.402 166.885 392.684 170.731C394.286 174.577 396.689 180.827 399.892 189.481C403.096 198.135 408.222 211.115 415.271 228.423C422.319 245.731 438.338 283.712 463.328 342.365C488.638 400.699 503.215 433.872 507.06 441.885C510.904 449.577 516.19 456.308 522.918 462.077C529.646 467.526 535.413 470.571 540.219 471.212C545.345 471.532 549.51 472.333 552.714 473.615C556.238 474.577 558 476.981 558 480.827C558 485.635 553.675 488.038 545.025 488.038L501.773 485.154L457.08 487.077C447.149 487.077 440.741 486.756 437.858 486.115C435.294 485.154 434.013 483.391 434.013 480.827C434.013 478.263 435.294 476.34 437.858 475.058C440.421 473.455 443.144 472.494 446.027 472.173C448.911 471.532 451.634 470.09 454.197 467.846C456.76 465.282 458.041 461.276 458.041 455.827C458.041 450.058 454.037 436.276 446.027 414.481C438.018 392.686 431.29 376.66 425.843 366.404C422.96 360.955 416.392 358.231 406.14 358.231L347.991 359.192H322.521C308.104 359.192 298.973 359.994 295.128 361.596C291.604 363.199 288.56 366.564 285.997 371.692C283.755 376.821 280.391 384.032 275.905 393.327C271.42 402.301 268.377 408.551 266.775 412.077C265.173 415.603 263.25 420.09 261.008 425.538C256.843 435.154 254.76 443.167 254.76 449.577C254.76 455.987 256.522 461.115 260.047 464.962C263.891 468.808 268.056 471.051 272.541 471.692C284.396 472.654 290.323 475.699 290.323 480.827C290.323 483.071 289.842 484.833 288.881 486.115C287.92 487.077 285.677 487.558 282.153 487.558L242.266 487.077ZM358.083 213.038C355.199 213.038 346.069 230.827 330.69 266.404C315.312 301.66 307.623 321.212 307.623 325.058C307.623 328.904 309.065 331.308 311.948 332.269C314.832 333.231 321.56 333.712 332.132 333.712H347.03L392.684 333.231C405.179 333.231 411.426 330.987 411.426 326.5C411.426 321.692 403.577 301.66 387.878 266.404C372.18 230.827 362.248 213.038 358.083 213.038Z" fill="white"/>
</svg>
