<svg width="718" height="486" viewBox="0 0 718 486" fill="none" xmlns="http://www.w3.org/2000/svg">
<path d="M488.323 231.162C485.977 226.483 480.286 224.591 475.606 226.937C470.928 229.282 469.036 234.975 471.382 239.653C480.132 257.111 484.569 275.94 484.569 295.62C484.569 364.584 428.463 420.69 359.499 420.69C290.536 420.69 234.429 364.584 234.429 295.62C234.429 226.656 290.536 170.549 359.499 170.549C379.466 170.549 398.543 175.11 416.2 184.108C420.861 186.482 426.567 184.63 428.944 179.967C431.319 175.305 429.466 169.6 424.803 167.223C404.456 156.856 382.486 151.599 359.499 151.599C280.086 151.599 215.479 216.206 215.479 295.62C215.479 375.034 280.086 439.64 359.499 439.64C438.913 439.64 503.519 375.033 503.519 295.62C503.519 272.965 498.406 251.279 488.323 231.162Z" fill="#D9B5A1" fill-opacity="0.18"/>
<path d="M381.24 107.374L433.136 55.478C436.836 51.778 436.836 45.7785 433.136 42.0775L393.833 2.77523C392.055 0.998665 389.646 0 387.133 0H332.108C329.595 0 327.185 0.998665 325.408 2.77523C325.408 2.77523 285.303 42.9502 284.926 43.5139C282.414 47.2727 282.907 52.2821 286.104 55.479L337.975 107.35C243.584 118.072 170 198.407 170 295.62C170 400.11 255.01 485.12 359.5 485.12C463.99 485.12 549 400.11 549 295.62C549 198.482 475.529 118.195 381.24 107.374ZM359.62 102.195L315.678 58.2532H403.561L359.62 102.195ZM336.032 18.95H383.207L403.561 39.3032H315.678L336.032 18.95ZM359.5 466.17C265.459 466.17 188.95 389.661 188.95 295.62C188.95 201.579 265.459 125.07 359.5 125.07C453.541 125.07 530.05 201.579 530.05 295.62C530.05 389.661 453.541 466.17 359.5 466.17Z" fill="#D9B5A1" fill-opacity="0.18"/>
<path d="M454.952 210.269C457.443 210.269 459.888 209.265 461.649 207.493C463.412 205.731 464.427 203.286 464.427 200.794C464.427 198.302 463.413 195.858 461.649 194.096C459.888 192.333 457.443 191.319 454.952 191.319C452.449 191.319 450.015 192.333 448.253 194.096C446.49 195.858 445.477 198.302 445.477 200.794C445.477 203.286 446.489 205.731 448.253 207.493C450.015 209.265 452.459 210.269 454.952 210.269Z" fill="#D9B5A1" fill-opacity="0.18"/>
<path d="M28.75 357L10 357.5C6.66667 357.5 5 356.583 5 354.75C5 352.583 7.08333 350.833 11.25 349.5C16.25 347.5 20 344.583 22.5 340.75C26.5 334.25 29.8333 328.5 32.5 323.5C35.1667 318.5 38 313.333 41 308C44 302.667 47.8333 295.75 52.5 287.25C57.1667 278.583 62.1667 269.5 67.5 260C97.1667 206.667 112.5 179.583 113.5 178.75C114.5 177.917 115.667 177.5 117 177.5C118.333 177.5 119.25 178.083 119.75 179.25C120.417 180.417 121.417 183.333 122.75 188C124.083 192.667 125 195.917 125.5 197.75L127.75 206C130.75 217 137.917 240 149.25 275C160.75 309.833 167.417 329.833 169.25 335C171.25 340 173 343.417 174.5 345.25C176 346.917 179.167 348.5 184 350C186.667 350.833 188 352.5 188 355C188 356.667 185.417 357.5 180.25 357.5L164 356.75L140.75 358C136.25 358 134 357.167 134 355.5C134 353.833 134.833 352.5 136.5 351.5C138.333 350.5 140.25 349.833 142.25 349.5C144.25 349.167 146.083 348.25 147.75 346.75C149.583 345.25 150.5 343.167 150.5 340.5C150.5 337.833 149.833 333.917 148.5 328.75C147.167 323.417 145.583 317.75 143.75 311.75C141.917 305.75 140.667 301.333 140 298.5C139 294.5 136 292.5 131 292.5L100.75 292.75C88.0833 292.75 79.6667 292.667 75.5 292.5C71.3333 292.167 68.5833 292 67.25 292C62.75 292 59.8333 293.25 58.5 295.75C49.1667 312.25 43.25 323.583 40.75 329.75C38.4167 335.917 37.25 339.25 37.25 339.75C37.25 343.917 38.6667 346.75 41.5 348.25C44.3333 349.583 47.1667 350.5 50 351C52.8333 351.333 54.25 352.333 54.25 354C54.25 356.333 53.5 357.5 52 357.5H50.5L28.75 357ZM80.25 281L128 280.75C130.333 280.75 131.667 280.167 132 279C132 278.5 132 277.583 132 276.25C132 274.75 128.333 263 121 241C113.833 219 109.5 208 108 208C107.167 208 100.25 219.667 87.25 243C74.25 266.333 67.75 278.5 67.75 279.5C67.75 280.5 69.3333 281 72.5 281H80.25ZM195.43 283.5C195.43 277.167 198.18 270 203.68 262C209.346 254 216.013 250 223.68 250C226.346 250 228.43 251.417 229.93 254.25C232.096 257.917 233.18 263.083 233.18 269.75C233.18 276.25 231.596 287.667 228.43 304C225.43 320.167 223.93 330.25 223.93 334.25C223.93 338.25 224.43 340.917 225.43 342.25C226.43 343.417 227.346 344 228.18 344C229.18 344 230.096 343.917 230.93 343.75C231.93 343.417 232.93 343 233.93 342.5C234.93 341.833 235.846 341.167 236.68 340.5C237.513 339.833 238.513 338.917 239.68 337.75C241.013 336.583 242.013 335.583 242.68 334.75C243.513 333.917 244.596 332.75 245.93 331.25C247.43 329.583 248.596 328.25 249.43 327.25C251.93 324.25 254.43 321.25 256.93 318.25C268.763 303.917 278.43 282.333 285.93 253.5C286.596 250.833 289.346 249.5 294.18 249.5C299.013 249.5 301.43 251.333 301.43 255C301.43 256.667 298.846 269.25 293.68 292.75C288.68 316.25 286.18 330.167 286.18 334.5C286.18 338.833 288.013 341 291.68 341C298.68 341 304.43 336.333 308.93 327C310.43 324 311.846 322.5 313.18 322.5C315.513 322.5 316.68 324.5 316.68 328.5C316.68 332.5 312.763 338.667 304.93 347C297.096 355.167 288.013 359.25 277.68 359.25C272.68 359.25 270.18 354.75 270.18 345.75C270.18 337.417 270.93 329.083 272.43 320.75C273.93 312.417 274.68 307.75 274.68 306.75C274.68 305.583 274.346 305 273.68 305C273.18 305 272.596 305.583 271.93 306.75C271.263 307.75 270.18 309.667 268.68 312.5C267.18 315.167 265.346 318 263.18 321C245.013 346.833 229.013 359.75 215.18 359.75C209.513 359.75 206.68 354.583 206.68 344.25C206.68 333.917 208.513 320.667 212.18 304.5C216.013 288.333 217.93 278.333 217.93 274.5C217.93 270.667 216.263 268.75 212.93 268.75C211.763 268.75 210.013 270.25 207.68 273.25C205.346 276.083 203.513 279.083 202.18 282.25C200.846 285.25 199.346 286.75 197.68 286.75C196.18 286.75 195.43 285.667 195.43 283.5ZM402.086 265C401.253 271.333 399.419 274.5 396.586 274.5C395.086 274.5 393.836 273.667 392.836 272C391.836 270.167 390.586 268.417 389.086 266.75C387.586 264.917 385.586 264 383.086 264C378.253 264 374.169 269 370.836 279C367.503 289 365.336 298.417 364.336 307.25L363.086 315.5C360.086 339 357.919 352.083 356.586 354.75C354.919 356.917 352.419 358 349.086 358H347.836C342.836 358 340.336 355.833 340.336 351.5C340.336 348.833 342.086 339 345.586 322C349.253 305 351.086 293 351.086 286C351.086 274.667 348.253 269 342.586 269C339.586 269 337.086 270.25 335.086 272.75C333.086 275.083 331.586 277.833 330.586 281C329.586 284 328.753 285.833 328.086 286.5C327.586 287 326.919 287.25 326.086 287.25C324.086 287.25 323.086 285.833 323.086 283C323.086 272.333 325.669 264.167 330.836 258.5C336.669 251.833 341.753 248.5 346.086 248.5C350.419 248.5 353.669 251.417 355.836 257.25C360.003 268.25 362.336 273.75 362.836 273.75C363.003 273.75 364.586 271.667 367.586 267.5C370.586 263.167 374.586 258.833 379.586 254.5C384.753 250.167 389.419 248 393.586 248C397.919 248 400.836 248.833 402.336 250.5C404.003 252 404.836 253.583 404.836 255.25C404.836 256.917 404.336 258.917 403.336 261.25C402.503 263.583 402.086 264.833 402.086 265ZM441.77 359.5C430.436 359.5 421.103 355.667 413.77 348C406.603 340.333 403.02 328.667 403.02 313C403.02 297.167 408.353 282.417 419.02 268.75C429.853 255.083 444.186 248.25 462.02 248.25C473.853 248.25 482.853 252.5 489.02 261C495.353 269.333 498.52 279.417 498.52 291.25C498.52 302.917 496.353 313.75 492.02 323.75C487.853 333.75 481.27 342.25 472.27 349.25C463.27 356.083 453.103 359.5 441.77 359.5ZM458.27 255.75C452.103 255.75 446.103 258.583 440.27 264.25C434.436 269.75 429.936 277.833 426.77 288.5C423.77 299.167 422.27 309.25 422.27 318.75C422.27 328.25 424.27 336.167 428.27 342.5C432.436 348.833 437.686 352 444.02 352C450.353 352 455.936 349.75 460.77 345.25C465.77 340.75 469.52 335.167 472.02 328.5C477.353 314.667 480.02 301.917 480.02 290.25C480.02 278.583 477.936 269.917 473.77 264.25C469.77 258.583 464.603 255.75 458.27 255.75ZM588.121 265C587.288 271.333 585.454 274.5 582.621 274.5C581.121 274.5 579.871 273.667 578.871 272C577.871 270.167 576.621 268.417 575.121 266.75C573.621 264.917 571.621 264 569.121 264C564.288 264 560.204 269 556.871 279C553.538 289 551.371 298.417 550.371 307.25L549.121 315.5C546.121 339 543.954 352.083 542.621 354.75C540.954 356.917 538.454 358 535.121 358H533.871C528.871 358 526.371 355.833 526.371 351.5C526.371 348.833 528.121 339 531.621 322C535.288 305 537.121 293 537.121 286C537.121 274.667 534.288 269 528.621 269C525.621 269 523.121 270.25 521.121 272.75C519.121 275.083 517.621 277.833 516.621 281C515.621 284 514.788 285.833 514.121 286.5C513.621 287 512.954 287.25 512.121 287.25C510.121 287.25 509.121 285.833 509.121 283C509.121 272.333 511.704 264.167 516.871 258.5C522.704 251.833 527.788 248.5 532.121 248.5C536.454 248.5 539.704 251.417 541.871 257.25C546.038 268.25 548.371 273.75 548.871 273.75C549.038 273.75 550.621 271.667 553.621 267.5C556.621 263.167 560.621 258.833 565.621 254.5C570.788 250.167 575.454 248 579.621 248C583.954 248 586.871 248.833 588.371 250.5C590.038 252 590.871 253.583 590.871 255.25C590.871 256.917 590.371 258.917 589.371 261.25C588.538 263.583 588.121 264.833 588.121 265ZM614.305 360.75C604.638 360.75 597.971 357.917 594.305 352.25C590.805 346.417 589.055 338 589.055 327C589.055 315.833 593.888 302.583 603.555 287.25C613.221 271.917 624.305 261.25 636.805 255.25C642.971 252.25 648.138 250.75 652.305 250.75C656.638 250.75 660.971 251.25 665.305 252.25C669.805 253.083 673.138 253.5 675.305 253.5C677.638 253.5 680.138 251.5 682.805 247.5C685.471 243.333 687.638 241.25 689.305 241.25C691.138 241.25 692.055 242.25 692.055 244.25C692.055 246.25 691.305 249.25 689.805 253.25C688.471 257.25 687.638 259.917 687.305 261.25C686.971 262.583 685.138 272.583 681.805 291.25C678.471 309.75 676.805 321.083 676.805 325.25C676.805 329.417 677.638 333.083 679.305 336.25C680.971 339.417 683.138 341 685.805 341C688.471 341 691.721 338.333 695.555 333C699.555 327.5 702.221 324.75 703.555 324.75C705.055 324.75 705.805 326 705.805 328.5C705.805 330.833 704.138 334.333 700.805 339C697.638 343.667 693.638 348.167 688.805 352.5C684.138 356.667 679.805 358.75 675.805 358.75C671.971 358.75 668.888 356.417 666.555 351.75C664.221 347.083 662.805 342.417 662.305 337.75C661.971 333.083 661.721 330.75 661.555 330.75C661.388 330.75 660.388 331.833 658.555 334C656.888 336 654.555 338.5 651.555 341.5C648.721 344.333 645.555 347.167 642.055 350C633.221 357.167 623.971 360.75 614.305 360.75ZM607.805 313.5C606.971 318.5 606.555 323.5 606.555 328.5C606.555 333.5 608.388 337.833 612.055 341.5C615.888 345.167 621.055 347 627.555 347C634.221 347 640.388 344.417 646.055 339.25C651.888 333.917 655.805 329.25 657.805 325.25C659.805 321.25 661.888 314.333 664.055 304.5C668.555 282.833 670.805 270.25 670.805 266.75C670.805 263.083 668.971 260.583 665.305 259.25C661.638 257.75 657.555 257 653.055 257C648.555 257 643.388 258.833 637.555 262.5C631.721 266.167 626.971 271.083 623.305 277.25C614.638 291.583 609.471 303.667 607.805 313.5Z" fill="#D9B5A1"/>
</svg>
