<svg width="2427" height="371" viewBox="0 0 2427 371" fill="none" xmlns="http://www.w3.org/2000/svg">
<path fill-rule="evenodd" clip-rule="evenodd" d="M272.054 0.0908374L271.976 294.012L239.902 293.986V0.0778748L272.054 0.0908374ZM457.638 276.736C440.359 287.961 420.366 294.307 399.776 295.1C379.186 295.894 358.764 291.106 340.672 281.244C322.58 271.381 307.491 256.811 297.002 239.075C286.513 221.34 281.013 201.098 281.086 180.492C281.159 159.887 286.801 139.685 297.415 122.023C308.029 104.362 323.22 89.8986 341.381 80.164C359.542 70.4295 379.997 65.7859 400.582 66.7246C421.166 67.6634 441.113 74.1496 458.313 85.4967C475.563 74.2855 495.52 67.9385 516.077 67.1255C536.634 66.3125 557.03 71.0636 575.112 80.8775C593.194 90.6914 608.291 105.204 618.811 122.884C629.331 140.565 634.884 160.757 634.883 181.33C634.886 201.973 629.298 222.232 618.713 239.954C608.128 257.676 592.94 272.201 574.763 281.985C556.586 291.769 536.099 296.448 515.476 295.523C494.854 294.599 474.867 288.107 457.638 276.736V276.736ZM483.383 108.012C500.387 128.487 509.676 154.274 509.634 180.889C509.634 209.034 499.466 234.766 482.618 254.674C495.105 261.052 509.018 264.126 523.03 263.604C537.042 263.081 550.687 258.98 562.665 251.691C574.643 244.401 584.555 234.166 591.457 221.961C598.359 209.756 602.021 195.986 602.094 181.965C602.168 167.943 598.649 154.136 591.875 141.859C585.101 129.583 575.296 119.245 563.395 111.831C551.493 104.417 537.892 100.173 523.886 99.505C509.88 98.8365 495.936 101.765 483.383 108.012V108.012ZM458.027 235.414C470.569 221.005 478.169 202.16 478.169 181.538C478.169 160.916 470.582 142.084 458.027 127.648C445.013 142.582 437.856 161.729 437.885 181.538C437.885 202.16 445.485 221.005 458.027 235.414ZM432.853 108.09C420.328 101.813 406.406 98.8429 392.409 99.4629C378.413 100.083 364.808 104.272 352.887 111.632C340.966 118.993 331.125 129.279 324.3 141.515C317.476 153.75 313.893 167.528 313.894 181.538C313.891 195.571 317.483 209.37 324.328 221.62C331.173 233.87 341.043 244.162 352.996 251.513C364.949 258.865 378.587 263.03 392.607 263.613C406.628 264.196 420.564 261.177 433.086 254.843C415.747 234.272 406.258 208.221 406.304 181.317C406.304 153.458 416.265 127.921 432.853 108.09ZM2002.56 0.0259253L2002.48 293.882H1970.41V0.0388879L2002.56 0.0259253ZM986.519 66.924V0L1018.67 0.0259253L1018.66 66.924H986.519ZM1018.66 77.2739L1018.61 294.051L986.532 293.869V77.2739H1018.66ZM643.664 157.025C643.715 144.211 645.791 133.135 649.357 123.576C659.357 96.8712 681.094 81.9689 703.26 73.9147C765.994 51.1527 804.009 104.16 804.333 104.056C804.579 103.979 833.463 58.0786 893.111 70.0497C928.752 77.1961 947.999 98.7129 956.598 123.265C960.463 134.315 962.162 145.975 962.24 157.232L962.201 293.96L929.348 293.882L929.245 156.493C929.193 145.248 922.747 126.779 916.547 119.361C905.354 105.95 891.088 100.075 877.106 99.7116C855.499 99.1539 819.741 112.98 819.767 156.597L819.806 293.908L786.772 293.96L786.824 156.506C786.824 123.745 758.251 98.1033 730.6 99.9839C714.543 101.073 703.908 102.734 691.003 116.845C679.953 128.919 677.981 143.679 677.489 157.168L677.359 293.947L643.806 293.921L643.664 157.025V157.025ZM1046.4 293.96L1046.58 156.532C1046.82 153.718 1045.69 139.788 1051.39 123.835C1060.37 98.7389 1083.39 68.6231 1133.48 68.7268C1187.39 68.8436 1209.61 101.164 1218.25 126.689C1220.56 133.511 1221.75 152.745 1221.83 156.571L1221.93 293.96H1189.51L1189.72 157.012C1189.56 81.087 1079.69 80.633 1079.62 156.545L1079.76 293.96H1046.4V293.96ZM1467.61 180.902C1467.61 183.003 1467.26 235.7 1466.82 252.846C1466.15 277.994 1460.99 296.242 1452.83 311.184C1416 378.587 1347.58 375.656 1314.85 364.839C1260.26 346.799 1249.12 307.332 1245.06 298.551L1280.09 298.733C1286.92 309.705 1302.61 341.818 1353.87 338.991C1431.69 334.685 1432.91 262.923 1433.08 262.742C1416.98 278.427 1396.62 289.019 1374.54 293.192C1352.45 297.364 1329.63 294.933 1308.92 286.202C1288.21 277.47 1270.53 262.827 1258.1 244.102C1245.67 225.378 1239.04 203.404 1239.03 180.928C1239.03 150.617 1251.07 121.547 1272.5 100.113C1293.94 78.6799 1323.01 66.6387 1353.32 66.6387C1368.32 66.6353 1383.19 69.5882 1397.05 75.329C1410.92 81.0697 1423.52 89.4858 1434.13 100.097C1444.74 110.707 1453.16 123.305 1458.91 137.169C1464.65 151.034 1467.61 165.895 1467.61 180.902V180.902ZM1354.25 263.027C1370.5 263.029 1386.38 258.214 1399.89 249.19C1413.4 240.165 1423.93 227.337 1430.15 212.328C1436.37 197.319 1437.99 180.803 1434.82 164.868C1431.65 148.934 1423.83 134.297 1412.34 122.809C1400.86 111.321 1386.22 103.498 1370.28 100.329C1354.35 97.1606 1337.83 98.7882 1322.83 105.007C1307.82 111.225 1294.99 121.755 1285.96 135.264C1276.94 148.774 1272.12 164.656 1272.13 180.902C1272.13 202.683 1280.78 223.572 1296.18 238.973C1311.58 254.374 1332.47 263.027 1354.25 263.027V263.027ZM31.8927 101.177C45.0465 87.6648 61.3399 77.6176 79.3198 71.9315C97.2998 66.2454 116.407 65.0971 134.939 68.5891C153.47 72.0811 170.85 80.1049 185.527 91.9448C200.204 103.785 211.724 119.073 219.058 136.446C226.392 153.819 229.312 172.737 227.559 191.513C225.806 210.289 219.434 228.339 209.01 244.054C198.587 259.769 184.437 272.661 167.821 281.579C151.206 290.497 132.641 295.165 113.784 295.166C50.6729 295.166 0.272364 243.209 0.272364 180.098L0 0.0648132H31.8797L31.8927 101.177V101.177ZM114.471 263.662C130.717 263.662 146.598 258.845 160.106 249.819C173.613 240.793 184.141 227.964 190.358 212.955C196.574 197.945 198.2 181.429 195.029 165.496C191.859 149.562 184.035 134.927 172.547 123.44C161.058 111.954 146.421 104.132 130.487 100.964C114.553 97.7962 98.0379 99.4246 83.0295 105.643C68.021 111.862 55.1938 122.392 46.17 135.901C37.1462 149.41 32.3311 165.292 32.3336 181.538C32.3336 192.324 34.4583 203.004 38.5862 212.968C42.7142 222.933 48.7646 231.987 56.3919 239.613C64.0193 247.239 73.0742 253.288 83.0395 257.415C93.0048 261.541 103.685 263.664 114.471 263.662V263.662ZM1680.49 101.138V0.0388879H1712.36L1712.1 180.085C1712.1 243.196 1661.69 295.153 1598.56 295.153C1579.7 295.146 1561.14 290.473 1544.53 281.551C1527.91 272.628 1513.77 259.733 1503.35 244.016C1492.92 228.298 1486.56 210.246 1484.81 191.469C1483.06 172.693 1485.98 153.775 1493.32 136.402C1500.65 119.029 1512.17 103.742 1526.85 91.903C1541.53 80.064 1558.91 72.0411 1577.44 68.5497C1595.97 65.0583 1615.08 66.2068 1633.06 71.893C1651.04 77.5791 1667.34 87.6262 1680.49 101.138V101.138ZM1597.91 263.636C1619.7 263.631 1640.59 254.972 1655.99 239.563C1671.39 224.155 1680.04 203.259 1680.04 181.473C1680.03 159.687 1671.37 138.795 1655.97 123.394C1640.56 107.993 1619.66 99.3433 1597.87 99.3484C1587.09 99.351 1576.41 101.478 1566.44 105.609C1556.48 109.739 1547.42 115.792 1539.8 123.422C1532.17 131.051 1526.12 140.108 1522 150.075C1517.87 160.042 1515.75 170.725 1515.75 181.512C1515.75 192.299 1517.88 202.98 1522.01 212.946C1526.14 222.911 1532.19 231.965 1539.82 239.591C1547.45 247.217 1556.51 253.265 1566.48 257.391C1576.44 261.517 1587.13 263.639 1597.91 263.636V263.636ZM1947.75 180.228H1948.05L1947.97 294.064H1915.89V260.148C1900.1 276.589 1879.75 287.932 1857.46 292.717C1835.17 297.502 1811.96 295.511 1790.81 287.001C1769.66 278.49 1751.53 263.849 1738.77 244.958C1726.01 226.068 1719.19 203.791 1719.18 180.993C1719.38 150.883 1731.46 122.069 1752.79 100.813C1774.12 79.5579 1802.97 67.5782 1833.09 67.4774C1863.2 67.3766 1892.13 79.1628 1913.6 100.275C1935.07 121.387 1947.34 150.119 1947.75 180.228V180.228ZM1833.7 263.766C1844.49 263.763 1855.17 261.634 1865.14 257.503C1875.11 253.371 1884.16 247.317 1891.79 239.686C1899.41 232.056 1905.46 222.998 1909.59 213.029C1913.71 203.061 1915.83 192.378 1915.83 181.59C1915.83 170.802 1913.7 160.12 1909.57 150.154C1905.43 140.188 1899.38 131.134 1891.75 123.508C1884.12 115.882 1875.06 109.834 1865.09 105.709C1855.12 101.583 1844.44 99.4617 1833.65 99.4651C1811.86 99.472 1790.97 108.134 1775.57 123.545C1760.17 138.956 1751.52 159.854 1751.53 181.642C1751.53 203.429 1760.2 224.322 1775.61 239.723C1791.02 255.124 1811.92 263.773 1833.7 263.766V263.766ZM2242.55 181.395C2242.55 189.592 2241.19 198.476 2241.28 198.476H2048.43C2052.23 217.026 2062.31 233.696 2076.98 245.668C2091.65 257.64 2110 264.18 2128.93 264.181C2161.13 264.181 2188.69 244.35 2202.93 217.698H2236.65C2228.04 243.43 2210.56 265.262 2187.33 279.287C2164.11 293.311 2136.64 298.614 2109.86 294.247C2083.08 289.879 2058.73 276.126 2041.16 255.448C2023.59 234.77 2013.96 208.516 2013.97 181.382C2013.97 151.071 2026.02 122.001 2047.45 100.569C2068.88 79.1369 2097.96 67.0974 2128.27 67.0991C2158.58 67.1008 2187.65 79.1436 2209.08 100.578C2230.51 122.013 2242.55 151.084 2242.55 181.395V181.395ZM2048.06 167.608H2209.8C2206.43 148.611 2196.48 131.407 2181.69 119.014C2166.9 106.62 2148.22 99.8282 2128.93 99.8282C2109.63 99.8282 2090.96 106.62 2076.17 119.014C2061.38 131.407 2051.43 148.611 2048.06 167.608ZM2285.29 63.3314L2284.7 198.606H2253.13V63.3573L2285.29 63.3314V63.3314ZM2291.85 225.868L2325.41 225.492C2325.41 225.492 2327.52 239.344 2330.81 244.973C2333.78 250.044 2356.9 272.988 2381.6 253.105C2402.83 236.063 2389.04 210.849 2388.06 209.708C2382.82 203.781 2375.06 195.039 2356.49 191.901C2333.77 188.075 2315.93 172.031 2311.02 167.492C2295.49 153.121 2292.65 113.576 2308.57 93.2267C2333.42 61.4249 2383.7 53.2928 2411.23 93.953C2415.09 99.6208 2420.61 110.282 2421.09 120.321L2390.66 120.23C2390.66 120.23 2386.26 109.802 2382.26 106.145C2382.29 106.157 2361.13 82.6693 2336.92 106.728C2327.88 115.716 2326.81 133.303 2331.63 141.306C2331.63 141.306 2337.76 153.264 2356.05 158.478C2373.27 163.367 2406.38 171.382 2418.03 193.846C2430.34 217.607 2429.61 247.774 2413.35 266.619C2398.94 283.312 2352.62 318.045 2306.27 266.568C2296.95 256.218 2294.13 239.642 2291.85 225.868V225.868Z" fill="#D9B5A1"/>
</svg>
