<svg width="2427" height="946" viewBox="0 0 2427 946" fill="none" xmlns="http://www.w3.org/2000/svg">
<path d="M1766.31 314.972L1667.92 433.489H1843.65L1892.85 314.972H1766.31ZM1875.22 464.682L2014.3 853.476L2153.37 464.682H1875.22V464.682ZM1876.44 433.489H2152.15L2102.98 314.972H1925.63L1876.44 433.489ZM2184.93 433.489H2360.65L2262.26 314.972H2135.76L2184.93 433.489ZM2185.66 464.682L2060.65 826.084L2360.65 464.682H2185.66ZM1967.93 826.084L1842.94 464.682H1667.92L1967.93 826.084ZM1747.95 273.391H2280.64L2426.47 449.079L2014.28 945.678L1602.09 449.079L1747.95 273.391Z" fill="#D9B5A1"/>
<path fill-rule="evenodd" clip-rule="evenodd" d="M1008.59 739.407C1008.59 741.612 1007.71 743 1005.35 743C997.686 743 995.339 707.592 949.659 707.592C900.167 707.592 875.706 747.409 875.706 788.913C875.706 808.549 881.607 827.083 893.98 843.126C907.533 860.532 925.795 872.438 949.659 872.438C995.326 872.438 998.866 829.015 1006.82 829.015C1009.18 829.015 1010.34 830.662 1010.06 832.608L1008.59 855.006C1008 863.592 1008.3 864.124 999.152 868.274C981.772 876.03 965.275 879.895 945.833 879.895C892.203 879.895 849.481 838.12 849.481 789.185C849.481 738.019 897.806 699.836 951.721 699.836C964.976 699.836 985.598 703.182 998.27 707.307C1006.82 710.069 1005.64 713.662 1006.52 721.418L1008.59 739.407ZM1063.38 768.148C1063.68 769.536 1064.26 770.91 1065.74 770.91C1066.92 770.91 1068.7 769.549 1069.28 768.991C1081.95 757.085 1093.14 751.56 1112.29 751.56C1124.37 751.56 1138.8 755.152 1146.18 764.828C1155.01 776.176 1154.72 790.819 1154.72 804.373V848.353C1154.72 860.233 1152.07 869.662 1167.98 871.024C1170.94 871.296 1176.23 871.024 1176.23 874.617C1176.23 876.848 1174.75 877.652 1172.7 877.652C1163.27 877.652 1153.84 876.562 1145.01 876.562C1135.58 876.562 1126.15 877.652 1117.02 877.652C1114.96 877.652 1112.9 877.12 1112.9 874.889C1112.9 870.739 1117.9 871.297 1121.15 871.011C1137.06 869.649 1134.4 860.22 1134.4 848.34V800.507C1134.4 791.662 1134.4 780.599 1129.39 773.154C1123.51 765.126 1113.78 760.69 1101.41 760.69C1090.21 760.69 1079.9 765.126 1072.24 772.597C1063.69 780.884 1063.39 786.954 1063.39 798.03V848.366C1063.39 860.246 1060.73 869.675 1076.65 871.037C1079.59 871.309 1084.89 871.037 1084.89 874.63C1084.89 876.861 1083.43 877.665 1081.37 877.665C1071.94 877.665 1062.51 876.575 1053.68 876.575C1044.25 876.575 1034.82 877.665 1025.69 877.665C1023.63 877.665 1021.56 877.133 1021.56 874.902C1021.56 870.752 1026.57 871.309 1029.81 871.024C1045.73 869.662 1043.07 860.233 1043.07 848.353V722.533C1043.07 712.3 1045.71 700.109 1031.58 700.109C1028.92 700.109 1023.91 700.939 1023.91 697.346C1023.91 695.427 1026.27 694.583 1028.04 694.311C1036.28 692.949 1047.49 690.161 1054.55 685.751C1056.02 684.636 1058.67 682.716 1060.73 682.716C1063.69 682.716 1063.39 684.921 1063.39 687.126V768.148H1063.38V768.148ZM1251.02 809.366C1261.63 804.658 1261.92 804.372 1261.92 793.867V781.701C1261.92 768.148 1261.34 756.799 1243.07 756.799C1225.09 756.799 1215.97 765.943 1209.18 780.054C1207.12 784.179 1205.66 788.057 1200.94 790.015C1197.99 791.377 1191.8 793.608 1188.26 793.608C1185.9 793.608 1184.44 793.05 1184.44 790.261C1184.44 783.089 1191.21 775.061 1196.81 770.625C1210.65 759.017 1230.69 751.547 1249.56 751.547C1258.68 751.547 1269.6 752.934 1276.35 758.745C1283.42 764.27 1282.26 771.455 1282.26 778.939V844.19C1282.26 850.298 1281.96 866.329 1292.57 866.329C1299.93 866.329 1303.18 859.416 1305.81 859.416C1307 859.416 1307.88 860.506 1307.88 861.621C1307.88 864.656 1302.86 868.534 1300.82 870.207C1294.91 874.059 1287.55 878.209 1279.9 878.209C1265.46 878.209 1263.98 858.858 1259.86 858.858C1257.2 858.858 1238.04 879.882 1212.41 879.882C1198.56 879.882 1184.71 871.854 1184.71 858.015C1184.71 838.379 1212.12 826.784 1228.31 819.314L1251.02 809.366V809.366ZM1229.79 824.852C1218.31 830.377 1206.82 837.562 1206.82 850.843C1206.82 861.634 1216.25 867.159 1227.16 867.159C1237.47 867.159 1247.47 862.749 1254.54 856.109C1261.63 849.196 1261.91 844.488 1261.91 835.357V818.769C1261.91 817.654 1262.79 811.013 1259.86 811.013C1258.98 811.013 1257.5 811.843 1256.61 812.128L1229.79 824.852ZM1337.66 796.37C1337.66 792.492 1337.96 781.701 1334.72 778.666C1332.94 776.721 1328.51 776.462 1326.16 776.462H1322.33C1320.56 776.462 1318.79 775.904 1318.79 774.231C1318.79 770.91 1322.92 770.353 1325.57 769.549C1332.64 767.603 1345.3 760.405 1350.02 755.165C1351.49 753.777 1352.99 751.573 1355.34 751.573C1358.28 751.573 1357.97 754.05 1357.97 756.008V771.209C1373.3 759.329 1389.79 751.858 1407.78 751.573C1424.26 751.3 1441.06 760.133 1452.26 770.923C1464.07 782.544 1470.25 798.588 1470.25 814.619C1470.25 852.789 1437.83 880.181 1396.58 879.895C1385.39 879.895 1377.43 877.392 1367.13 874.072C1365.35 873.8 1362.11 872.71 1360.35 872.71C1356.83 872.71 1357.99 879.351 1357.99 880.998V910.608C1357.99 922.488 1355.35 931.891 1371.25 933.279C1374.2 933.551 1379.49 933.279 1379.49 936.872C1379.49 939.076 1378.02 939.907 1375.98 939.907C1366.55 939.907 1357.13 938.791 1348.26 938.791C1338.83 938.791 1329.41 939.907 1320.3 939.907C1318.22 939.907 1316.17 939.349 1316.17 937.144C1316.17 932.994 1321.17 933.551 1324.41 933.266C1340.32 931.878 1337.68 922.475 1337.68 910.595V796.37H1337.66ZM1432.23 777.836C1423.11 768.991 1409.55 763.479 1396.29 763.479C1384.2 763.479 1370.37 767.603 1363.01 777.836C1357.99 783.102 1357.99 790.547 1357.99 796.941V839.806C1357.99 849.767 1358.87 859.714 1367.44 866.913C1373.9 871.88 1384.21 874.915 1393.06 874.915C1426.95 874.915 1447.88 847.004 1447.88 818.224C1447.85 803.568 1443.15 788.627 1432.23 777.836V777.836ZM1515.28 837.03C1515.28 848.911 1515.01 869.377 1532.66 869.377C1543.58 869.377 1551.53 859.702 1553.89 859.702C1555.06 859.702 1555.94 860.791 1555.94 861.621C1555.94 864.384 1552.12 867.976 1550.07 869.377C1542.7 875.732 1532.97 879.895 1522.66 879.895C1514.71 879.895 1506.45 877.133 1501.43 871.309C1493.78 862.192 1494.97 848.081 1494.97 837.03V765.956C1494.97 760.133 1493.2 760.963 1487.61 760.963C1486.14 760.963 1478.46 762.078 1478.46 758.758C1478.46 756.812 1480.54 755.723 1482 754.607C1494.67 746.852 1503.21 739.965 1509.99 726.697C1510.58 725.581 1511.46 724.193 1512.94 724.193C1515.01 724.193 1515.3 725.866 1515.3 727.514V747.15C1515.3 750.743 1515.88 752.416 1520 752.701H1549.19C1551.82 752.701 1551.82 754.348 1551.82 756.579C1551.82 762.376 1549.46 760.989 1542.7 760.989H1526.22C1519.43 760.989 1515.3 759.341 1515.3 767.071V837.03H1515.28ZM1595.38 801.338C1586.24 801.338 1583.3 800.78 1583.3 809.923C1583.3 840.882 1604.8 867.704 1640.44 867.704C1669.33 867.704 1680.21 849.741 1684.06 849.741C1685.52 849.741 1686.42 850.83 1686.42 851.946C1686.42 855.266 1676.99 862.736 1674.92 864.384C1661.06 875.46 1646.64 879.882 1628.38 879.882C1589.77 879.882 1561.17 850.83 1561.17 816.279C1561.17 797.46 1566.8 782.817 1582.4 770.093C1597.12 757.915 1615.41 751.547 1635.45 751.547C1651.36 751.547 1667.55 756.786 1677.86 768.693C1683.76 775.606 1688.2 787.486 1688.2 796.63C1688.2 798.834 1687.59 801.312 1684.66 801.312H1595.38V801.338V801.338ZM1619.52 794.697C1628.67 794.697 1645.16 794.425 1653.72 792.492C1660.21 791.104 1664.62 788.056 1664.62 781.416C1664.62 775.618 1661.08 769.25 1656.97 765.1C1650.48 758.745 1640.75 756.54 1631.32 756.54C1616.28 756.54 1601.87 763.453 1593.02 775.061C1590.37 778.096 1585.66 786.682 1585.66 791.091C1585.66 795.527 1592.41 794.684 1595.66 794.684H1619.52V794.697V794.697ZM1720.62 796.37C1720.62 792.492 1720.89 781.701 1717.65 778.666C1715.9 776.721 1711.46 776.462 1709.12 776.462H1705.29C1703.51 776.462 1701.75 775.904 1701.75 774.231C1701.75 770.91 1705.87 770.353 1708.53 769.549C1715.6 767.603 1728.26 760.405 1732.98 755.165C1734.45 753.777 1735.93 751.573 1738.27 751.573C1741.24 751.573 1740.93 754.05 1740.93 756.008V769.562C1740.93 770.651 1740.35 775.359 1742.4 775.359C1745.37 775.359 1756.83 753.246 1777.18 753.246C1786.03 753.246 1793.98 758.213 1793.98 766.514C1793.98 773.427 1788.69 777.564 1781.59 777.564C1771.59 777.564 1771.01 767.045 1762.75 767.045C1756.26 767.045 1751.24 772.869 1747.73 777.006C1740.66 786.435 1740.94 793.621 1740.94 804.671V848.366C1740.94 860.246 1738.29 869.675 1754.21 871.037C1757.16 871.309 1762.45 871.037 1762.45 874.63C1762.45 876.861 1760.98 877.665 1758.93 877.665C1749.5 877.665 1740.06 876.575 1731.22 876.575C1721.79 876.575 1712.37 877.665 1703.23 877.665C1701.18 877.665 1699.13 877.133 1699.13 874.902C1699.13 870.752 1704.12 871.309 1707.37 871.024C1723.28 869.662 1720.63 860.233 1720.63 848.353V796.37H1720.62V796.37ZM39.5708 438.885C39.5708 427.03 42.0999 410.831 25.6801 410.831C16.8477 410.831 8.84538 415.176 4.6302 415.176C1.6731 415.176 0 413.204 0 410.831C0 396.603 103.966 391.869 120.8 391.869C159.515 391.869 197.4 400.572 228.968 422.685C260.965 445.214 282.002 480.764 282.002 518.687C282.002 555.042 265.582 589.814 236.971 613.496C205.402 639.177 168.361 645.895 127.532 645.895C96.3913 645.895 65.2379 644.326 34.9276 644.326C25.6672 644.326 17.2498 645.895 8.41738 645.895C4.63021 645.895 1.25807 644.326 1.25807 640.37C1.25807 635.234 7.98938 636.012 12.2045 636.012C41.6589 636.012 39.5578 627.322 39.5578 602.044V438.885H39.5708V438.885ZM72.8252 594.937C72.8252 630.098 81.2426 638.411 117.869 638.411C153.225 638.411 183.107 632.082 208.787 607.206C231.523 584.691 243.728 553.083 243.728 522.267C243.728 448.78 189.851 400.974 113.667 400.974C104.822 400.974 83.7847 401.765 77.4684 407.692C72.4102 412.426 72.8382 424.683 72.8382 430.999V594.937H72.8252V594.937ZM352.661 604.028C352.661 621.032 348.874 634.456 371.597 636.427C375.812 636.829 383.386 636.427 383.386 641.563C383.386 644.702 381.285 645.895 378.328 645.895C364.865 645.895 351.39 644.326 338.77 644.326C325.295 644.326 311.832 645.895 298.784 645.895C295.827 645.895 292.883 645.104 292.883 641.939C292.883 636.012 300.043 636.816 304.673 636.414C327.396 634.443 323.609 621.006 323.609 604.016V529.738C323.609 524.213 324.024 508.792 319.406 504.447C316.877 501.684 310.561 501.282 307.202 501.282H301.729C299.2 501.282 296.67 500.491 296.67 498.117C296.67 493.384 302.572 492.592 306.359 491.399C316.462 488.637 334.555 478.364 341.299 470.855C343.4 468.884 345.502 465.719 348.874 465.719C353.076 465.719 352.661 469.273 352.661 472.048V604.028V604.028ZM319.834 412.413C319.834 402.141 327.409 392.673 338.77 392.673C349.717 392.673 356.448 402.141 356.448 411.635C356.448 422.296 350.132 431.388 337.927 431.388C326.566 431.388 319.834 422.685 319.834 412.413ZM478.753 548.323C493.902 541.605 494.33 541.216 494.33 526.197V508.817C494.33 489.467 493.487 473.267 467.391 473.267C441.711 473.267 428.664 486.302 418.988 506.457C416.044 512.384 413.943 517.909 407.212 520.685C402.997 522.656 394.164 525.821 389.106 525.821C385.734 525.821 383.633 525.03 383.633 521.074C383.633 510.802 393.321 499.35 401.31 493.02C421.089 476.432 449.714 465.758 476.652 465.758C489.699 465.758 505.276 467.729 514.952 476.03C525.055 483.929 523.369 494.201 523.369 504.875V598.114C523.369 606.804 522.941 629.735 538.103 629.735C548.621 629.735 553.251 619.852 557.038 619.852C558.725 619.852 559.996 621.421 559.996 623.016C559.996 627.348 552.836 632.899 549.892 635.247C541.488 640.798 530.956 646.699 520.01 646.699C499.388 646.699 497.287 619.06 491.385 619.06C487.598 619.06 460.245 649.073 423.618 649.073C403.84 649.073 384.048 637.62 384.048 617.867C384.048 589.827 423.19 573.225 446.342 562.551L478.753 548.323ZM448.443 570.45C432.023 578.348 415.603 588.62 415.603 607.569C415.603 622.99 429.079 630.902 444.655 630.902C459.389 630.902 473.695 624.573 483.798 615.092C493.902 605.209 494.317 598.503 494.317 585.456V561.747C494.317 560.165 495.588 550.684 491.373 550.684C490.101 550.684 488 551.864 486.742 552.266L448.443 570.45V570.45Z" fill="#D9B5A1"/>
<path fill-rule="evenodd" clip-rule="evenodd" d="M589.359 529.764C589.359 524.239 589.787 508.818 585.144 504.473C582.627 501.711 576.311 501.309 572.939 501.309H567.466C564.937 501.309 562.421 500.517 562.421 498.144C562.421 493.41 568.309 492.619 572.096 491.426C582.199 488.663 600.292 478.391 607.024 470.881C609.125 468.91 611.239 465.746 614.598 465.746C618.813 465.746 618.385 469.299 618.385 472.075C618.385 477.6 617.127 495.784 620.914 495.784C627.218 495.784 648.695 465.758 686.152 465.758C728.654 465.758 733.297 500.128 739.186 500.128C744.244 500.128 766.124 465.758 805.266 465.758C828.832 465.758 840.622 473.657 849.882 483.929C863.345 498.948 862.515 517.91 862.515 536.483V604.029C862.515 621.032 858.728 634.456 881.451 636.428C885.666 636.83 893.24 636.428 893.24 641.564C893.24 644.702 891.126 645.896 888.182 645.896C874.707 645.896 861.244 644.326 848.611 644.326C835.149 644.326 821.673 645.896 808.626 645.896C805.681 645.896 802.737 645.104 802.737 641.94C802.737 636.013 809.897 636.817 814.527 636.415C837.25 634.443 833.463 621.006 833.463 604.016V536.859C833.463 525.004 833.463 509.596 827.99 499.324C821.245 487.068 803.995 479.571 790.52 481.154C777.057 482.736 764.01 487.47 753.906 496.562C740.431 508.416 740.431 517.106 740.431 533.707V604.029C740.431 621.032 736.643 634.456 759.366 636.428C763.582 636.83 771.156 636.428 771.156 641.564C771.156 644.702 769.042 645.896 766.098 645.896C752.622 645.896 739.16 644.326 726.527 644.326C713.064 644.326 699.589 645.896 686.541 645.896C683.597 645.896 680.653 645.104 680.653 641.94C680.653 636.013 687.812 636.817 692.43 636.415C715.166 634.443 711.378 621.006 711.378 604.016V536.859C711.378 525.004 711.378 509.596 705.905 499.324C699.174 487.068 681.911 479.571 668.448 481.154C654.986 482.736 641.938 487.47 631.835 496.562C618.359 508.416 618.359 517.106 618.359 533.707V604.029C618.359 621.032 614.572 634.456 637.295 636.428C641.497 636.83 649.085 636.428 649.085 641.564C649.085 644.702 646.971 645.896 644.026 645.896C630.551 645.896 617.088 644.326 604.469 644.326C590.993 644.326 577.53 645.896 564.483 645.896C561.539 645.896 558.582 645.104 558.582 641.94C558.582 636.013 565.741 636.817 570.371 636.415C593.094 634.443 589.307 621.006 589.307 604.016V529.764H589.359V529.764ZM895.484 555.833C895.484 532.125 906.003 508.429 924.108 492.23C944.315 473.657 971.669 465.746 999.865 465.746C1025.96 465.746 1051.21 472.464 1071.42 488.663C1092.04 504.862 1104.25 530.542 1104.25 555.821C1104.25 609.943 1056.26 649.06 999.865 649.06C943.044 649.073 895.484 609.956 895.484 555.833V555.833ZM1072.26 558.596C1072.26 518.688 1048.27 473.255 999.45 473.255C953.148 473.255 927.053 513.552 927.053 553.849C927.053 592.953 953.576 641.564 1001.14 641.564C1046.59 641.577 1072.26 596.131 1072.26 558.596ZM1141.83 529.764C1141.83 524.239 1142.25 508.818 1137.62 504.473C1135.09 501.711 1128.78 501.309 1125.41 501.309H1119.94C1117.41 501.309 1114.88 500.517 1114.88 498.144C1114.88 493.41 1120.77 492.619 1124.56 491.426C1134.66 488.663 1152.77 478.391 1159.5 470.881C1161.61 468.91 1163.71 465.746 1167.07 465.746C1171.27 465.746 1170.86 469.299 1170.86 472.075V498.144C1178.02 498.144 1201.6 465.746 1239.9 465.746C1260.92 465.746 1277.77 472.866 1289.54 487.081C1303.02 503.28 1302.19 522.644 1302.19 541.606V604.029C1302.19 621.032 1298.39 634.456 1321.14 636.428C1325.34 636.83 1332.92 636.428 1332.92 641.564C1332.92 644.702 1330.81 645.896 1327.84 645.896C1314.39 645.896 1300.92 644.326 1288.27 644.326C1274.82 644.326 1261.35 645.896 1248.3 645.896C1245.36 645.896 1242.4 645.104 1242.4 641.94C1242.4 636.013 1249.57 636.817 1254.2 636.415C1276.92 634.443 1273.12 621.006 1273.12 604.016V541.204C1273.12 528.558 1273.12 512.761 1265.55 502.087C1257.55 490.635 1242.4 484.305 1225.98 484.305C1210.4 484.294 1195.45 490.395 1184.32 501.296C1172.12 513.15 1170.85 521.84 1170.85 537.637V604.016C1170.85 621.019 1167.06 634.443 1189.78 636.415C1194 636.817 1201.57 636.415 1201.57 641.551C1201.57 644.689 1199.46 645.883 1196.51 645.883C1183.05 645.883 1169.57 644.313 1156.95 644.313C1143.49 644.313 1130.02 645.883 1116.97 645.883C1114.02 645.883 1111.08 645.091 1111.08 641.927C1111.08 636 1118.24 636.804 1122.87 636.402C1145.59 634.43 1141.81 620.994 1141.81 604.003V529.764H1141.83V529.764ZM1518.37 607.583C1518.37 611.941 1516.7 627.751 1524.7 627.751C1533.52 627.751 1540.68 613.925 1544.48 613.925C1547.42 613.925 1546.98 617.09 1546.58 618.659L1546.15 623.795C1545.72 628.931 1544.05 628.931 1539 630.513L1504.91 642.77C1502.81 643.937 1498.58 646.311 1496.06 646.311C1491.43 646.311 1491.86 637.621 1491.43 635.234C1491.43 633.665 1491.43 622.589 1487.23 622.589C1480.93 622.589 1456.5 649.06 1422.41 649.06C1368.96 649.06 1331.49 605.209 1331.49 557.792C1331.49 532.903 1342.01 511.179 1360.94 494.188C1379.89 477.198 1405.99 464.552 1432.91 465.746C1448.49 466.537 1464.07 468.91 1477.96 474.046C1480.06 474.837 1483.86 476.42 1485.96 476.42C1491 476.42 1489.33 464.176 1489.33 461.803V424.268C1489.33 409.651 1493.1 392.272 1472.91 392.272C1469.11 392.272 1461.96 393.452 1461.96 388.316C1461.96 385.553 1465.34 384.373 1467.87 383.971C1479.64 382 1495.63 378.044 1505.74 371.728C1507.84 370.145 1511.64 367.383 1514.58 367.383C1518.79 367.383 1518.36 370.547 1518.36 373.699V607.583H1518.37V607.583ZM1489.34 522.255C1489.34 510.011 1490.17 494.992 1479.24 485.511C1469.14 476.42 1449.79 471.686 1435.9 472.866C1390.02 476.809 1362.67 512.372 1362.67 551.878C1362.67 591.384 1388.76 632.07 1435.47 632.07C1452.72 632.07 1473.37 626.545 1485.14 613.497C1490.61 607.194 1489.34 601.669 1489.34 593.77V522.255Z" fill="#D9B5A1"/>
<path fill-rule="evenodd" clip-rule="evenodd" d="M1762.64 1L1778.05 253.638L1881.94 167.311L1799.83 276.128L1963.96 292.042L1799.83 307.968L1881.94 416.785L1778.05 330.458L1762.64 583.109L1747.22 330.458L1641.84 416.785L1725.43 307.968L1561.31 292.042L1725.43 276.128L1641.84 167.311L1747.22 253.638L1762.64 1Z" fill="#EFE8E3" stroke="#D9B5A1" stroke-width="5.77155" stroke-miterlimit="2.613"/>
</svg>
