<svg width="2427" height="622" viewBox="0 0 2427 622" fill="none" xmlns="http://www.w3.org/2000/svg">
<path fill-rule="evenodd" clip-rule="evenodd" d="M149.282 117.519C149.282 76.314 152.33 54.9398 158.439 48.844C166.065 44.2657 195.078 36.6395 246.97 36.6395C480.491 36.6395 527.805 203.003 527.805 300.678C527.805 465.511 449.973 579.995 277.501 579.995C221.031 579.995 187.452 570.825 167.608 543.368C152.343 521.994 149.295 492.981 149.295 445.693V117.519H149.282ZM77.5464 465.511C77.5464 560.125 74.4985 570.812 22.6065 576.921L2.76274 579.982C-1.81559 586.091 -0.28516 599.813 4.29317 602.861C47.0285 601.343 79.0768 599.826 115.703 599.826C147.752 599.826 204.235 607.452 260.705 607.452C329.38 607.452 402.647 595.247 460.647 564.716C562.901 509.776 616.323 412.088 616.323 299.148C616.323 181.629 556.792 79.3619 436.225 36.6265C378.224 15.2653 314.115 9.15659 239.331 9.15659C164.548 9.15659 91.2814 12.2174 16.4977 16.7957C7.34106 19.8436 8.8715 33.5787 14.9673 38.157L34.811 41.2049C72.9681 47.3136 77.5464 65.627 77.5464 128.206V465.511V465.511ZM674.324 344.931C674.324 309.822 674.324 305.243 649.902 288.46L642.263 283.882C637.685 280.821 637.685 270.147 642.263 267.099C663.624 260.991 713.999 236.568 733.842 224.364C738.421 224.364 742.999 225.881 742.999 228.942C741.469 261.003 739.938 303.739 739.938 340.365V500.633C739.938 564.716 741.469 573.886 773.517 576.934L791.843 579.995C797.952 584.586 796.422 599.826 790.313 602.873C764.373 601.356 738.421 599.839 706.359 599.839C674.311 599.839 648.359 601.356 622.419 602.873C616.323 599.839 614.793 584.586 620.889 579.995L639.202 576.934C672.781 573.899 674.311 564.729 674.311 500.633V344.931H674.324V344.931ZM746.047 82.4227C746.047 112.954 724.686 128.206 700.264 128.206C672.781 128.206 654.467 108.362 654.467 83.9402C654.467 54.9398 677.359 36.6265 703.312 36.6265C729.264 36.6265 746.047 56.4702 746.047 82.4227V82.4227ZM924.615 500.62C924.615 564.703 926.145 573.873 958.193 576.921L979.568 579.982C985.663 584.573 984.146 599.813 978.037 602.861C947.506 601.343 921.567 599.826 891.036 599.826C858.988 599.826 833.035 601.343 805.565 602.861C799.456 599.826 797.939 584.573 804.035 579.982L823.879 576.921C857.457 573.886 857.457 564.716 857.457 500.62V134.315C857.457 82.4228 857.457 76.314 829.987 61.0616L820.831 54.9528C817.783 51.9049 817.783 39.6874 820.831 38.1699C843.722 30.5437 886.458 16.8087 918.506 0.0128774C920.08 -0.0132148 921.629 0.401844 922.979 1.21098C924.33 2.02012 925.426 3.19098 926.145 4.59116C926.145 32.0741 924.615 76.327 924.615 116.014V500.62V500.62ZM1112.35 500.62C1112.35 564.703 1113.88 573.873 1145.93 576.921L1167.29 579.982C1173.4 584.573 1171.87 599.813 1165.76 602.861C1136.76 601.343 1110.82 599.826 1078.76 599.826C1046.7 599.826 1020.76 601.343 993.29 602.861C987.181 599.826 985.65 584.573 991.759 579.982L1011.6 576.921C1045.18 573.886 1046.71 564.716 1046.71 500.62V134.315C1046.71 82.4228 1045.18 76.314 1019.24 61.0616L1010.09 54.9528C1005.51 51.9049 1005.51 39.6874 1010.09 38.1699C1031.45 30.5437 1074.18 16.8087 1106.24 0.0128774C1109.29 0.0128774 1112.35 1.54327 1115.4 4.59116C1113.88 32.0482 1112.35 76.314 1112.35 116.001V500.62V500.62ZM1243.62 518.933C1243.62 483.824 1269.56 470.089 1321.46 453.293C1336.72 447.184 1351.99 444.123 1358.09 444.123C1362.68 444.123 1367.23 445.667 1367.23 456.328L1365.72 508.233C1365.72 526.546 1364.2 538.764 1353.51 549.451C1344.34 558.595 1316.89 572.33 1298.57 572.33C1254.31 572.343 1243.62 534.186 1243.62 518.933V518.933ZM1248.2 453.306C1191.71 474.654 1174.93 494.524 1174.93 529.607C1174.93 554.029 1185.62 576.921 1202.41 592.199C1217.67 605.934 1239.04 612.03 1264.98 612.03C1289.4 612.03 1309.26 601.343 1329.09 590.656C1345.89 579.995 1356.55 572.343 1362.68 572.343C1368.76 572.343 1373.34 579.995 1377.93 584.573C1393.21 604.404 1414.56 612.03 1435.95 612.03C1478.68 612.03 1510.73 576.921 1510.73 573.886C1510.73 566.234 1507.67 561.681 1504.62 561.681C1501.56 561.681 1497 564.716 1492.42 567.79C1487.83 570.825 1478.68 573.899 1469.51 573.899C1435.95 573.899 1426.78 537.272 1429.84 496.055L1434.4 340.378C1437.47 273.221 1405.43 236.594 1341.31 236.594C1277.18 236.594 1176.47 299.173 1176.47 346.474C1176.47 354.126 1181.07 358.679 1188.68 358.679C1202.43 358.679 1226.84 352.57 1239.04 341.896C1246.67 335.787 1248.21 325.113 1248.21 311.365C1249.73 283.895 1280.26 271.678 1304.68 271.678C1361.15 271.678 1371.84 315.943 1370.32 347.979V389.197C1368.78 402.957 1367.26 410.571 1355.04 415.162L1248.2 453.306V453.306Z" fill="#D9B5A1"/>
<path fill-rule="evenodd" clip-rule="evenodd" d="M1564.14 344.93C1564.14 309.821 1564.14 305.243 1539.72 288.46L1532.07 283.882C1527.5 280.821 1527.5 270.147 1532.07 267.099C1553.44 260.99 1600.77 236.568 1622.12 224.363C1626.71 224.363 1629.77 225.881 1629.77 230.472V282.364C1629.77 286.942 1631.29 288.473 1632.8 289.99C1663.33 264.051 1696.91 236.581 1730.48 236.581C1753.38 236.581 1770.18 250.316 1770.18 271.677C1770.18 300.677 1745.76 312.895 1732.01 312.895C1722.86 312.895 1718.27 309.847 1712.18 306.786C1698.44 297.63 1686.24 293.038 1674.03 293.038C1658.76 293.038 1648.09 300.677 1641.99 309.834C1632.82 323.569 1629.78 347.978 1629.78 378.496V500.619C1629.78 564.703 1631.3 575.403 1664.86 576.92L1696.94 579.981C1703.05 584.573 1701.5 599.812 1695.39 602.86C1654.2 601.343 1628.24 599.825 1596.2 599.825C1564.17 599.825 1538.19 601.343 1515.32 602.86C1509.21 599.825 1506.15 584.573 1512.26 579.981L1530.58 576.92C1562.65 572.329 1564.17 564.716 1564.17 500.619V344.93H1564.14V344.93Z" fill="#D9B5A1"/>
<path fill-rule="evenodd" clip-rule="evenodd" d="M2008.28 511.294C2008.28 526.572 2006.76 538.777 2002.17 544.886C1988.43 558.621 1957.92 569.308 1933.49 569.308C1846.48 569.308 1800.71 492.981 1800.71 412.101C1800.71 334.27 1841.9 264.051 1924.32 264.051C1957.92 264.051 1985.37 282.365 1999.11 300.678C2005.22 309.835 2008.28 318.991 2008.28 335.774V511.294V511.294ZM2073.9 116.002C2073.9 76.3141 2075.42 32.0612 2076.94 4.57829C2075.42 1.53039 2070.83 0 2067.8 0C2035.72 16.7829 1994.54 30.5308 1971.64 38.1571C1967.05 39.6875 1967.05 51.892 1971.64 54.9399L1980.78 61.0487C2006.75 76.3141 2008.26 82.4098 2008.26 134.302V231.99C2008.26 239.616 2006.75 244.195 2003.67 244.195C1992.99 241.147 1973.14 236.568 1942.62 236.568C1822.04 236.568 1727.43 315.931 1727.43 441.089C1727.43 534.186 1793.04 612.03 1892.26 612.03C1935 612.03 1965.52 598.295 2005.19 570.812H2008.25C2009.77 575.404 2009.77 586.091 2009.77 598.295V613.548C2009.77 618.139 2014.36 621.174 2020.46 621.174C2044.88 612.03 2099.82 598.295 2137.98 592.199C2145.63 587.608 2144.08 566.234 2137.98 564.717C2125.77 569.308 2110.52 573.886 2099.83 573.886C2075.41 573.886 2073.89 540.294 2073.89 470.102V116.002H2073.9V116.002ZM2253.99 120.58C2253.99 181.642 2205.15 224.364 2148.69 241.16C2142.58 238.099 2138 228.942 2142.58 222.834C2176.15 207.568 2211.25 183.146 2211.25 146.519C2211.25 111.41 2183.8 96.1579 2165.48 96.1579C2153.28 94.6274 2142.58 88.5316 2142.58 71.7357C2142.58 58.0008 2150.21 35.1092 2185.31 35.1092C2221.94 35.1092 2253.99 73.2662 2253.99 120.58V120.58ZM2409.68 251.834C2417.3 271.665 2423.41 300.678 2423.41 325.087C2420.38 331.196 2406.62 332.713 2402.07 326.605C2386.79 288.461 2360.85 262.508 2324.22 262.508C2289.11 262.508 2266.21 283.869 2266.21 315.931C2266.21 352.557 2304.38 372.414 2334.91 390.701C2382.2 416.667 2426.49 447.184 2426.49 511.281C2426.49 578.439 2363.9 612.03 2298.28 612.03C2255.55 612.03 2225.03 602.861 2202.12 586.091C2196.01 569.295 2189.92 525.042 2191.44 496.042C2196.03 489.933 2208.23 489.933 2212.81 494.524C2228.06 543.368 2255.55 586.104 2307.43 586.104C2339.47 586.104 2366.96 567.79 2366.96 529.62C2366.96 488.428 2330.33 465.537 2298.28 447.21C2246.38 418.21 2209.75 387.679 2209.75 337.318C2209.75 273.221 2263.17 236.581 2330.33 236.581C2368.46 236.568 2400.53 245.725 2409.68 251.834Z" fill="#D9B5A1"/>
</svg>
