<svg width="2280" height="1002" viewBox="0 0 2280 1002" fill="none" xmlns="http://www.w3.org/2000/svg">
<path fill-rule="evenodd" clip-rule="evenodd" d="M366.785 5.08418H368.134L369.483 5.4214L370.494 5.75858L371.519 6.77026L372.531 7.79485L373.205 9.14371L374.217 10.8428L374.554 12.5418L375.228 14.9152L375.565 16.9515L375.903 19.6492L376.24 22.6971L376.577 25.745V36.5747L380.974 539.542L507.987 531.747L510.697 54.5249L528.985 5.08418L585.883 0L599.099 23.3715L601.473 523.966L687.164 518.881L816.875 513.797L876.484 518.881L892.06 531.747V550.035L881.555 567.998L840.233 591.356L837.523 594.417L831.077 601.862L821.596 612.705L810.416 626.232L798.561 640.136L787.732 653.663L782.647 660.096L778.588 665.518L775.203 670.615L772.492 674.337L770.806 678.384L768.433 682.793L766.059 688.215L763.361 694.323L758.277 706.865L753.206 720.068L748.796 732.247L745.074 742.766L742.376 749.523L741.689 752.233L741.352 752.921V754.62L740.677 756.643L740.34 759.354V766.111L740.677 767.473L741.015 768.484L741.689 769.172L742.376 769.496L743.051 769.846H744.062L745.411 769.159L746.76 768.472L748.459 767.123L750.145 765.424L752.519 763.037L754.892 760.327L757.603 757.292L760.651 753.219L764.036 748.835L767.421 743.738L771.48 737.629L775.89 731.196L780.637 723.752L789.781 708.862L797.913 694.985L805.37 682.78L812.141 671.276L817.899 661.121L822.983 651.977L827.38 643.845L831.103 636.725L834.15 630.616L836.861 625.545L838.897 621.472L840.259 618.1L841.608 615.389L842.282 613.69L842.62 612.679V611.991L844.993 610.292L851.426 606.22L855.486 603.859L860.233 601.149L862.606 600.137L864.98 598.775L867.69 597.426L870.388 596.415L873.099 595.727L875.472 594.716L878.183 594.391L880.556 593.704H885.303L887.677 594.028L889.713 594.716L891.749 595.727L893.772 596.739L895.134 598.438L896.483 600.137L897.832 602.497L898.857 605.208L899.531 608.606L899.868 612.004L900.543 620.136L901.217 627.918L902.229 636.05L903.253 644.182L904.602 652.314L905.964 660.096L907.313 667.567L908.675 674.324L911.048 686.866L913.422 696.671L914.771 703.104L915.445 705.49V706.502L916.132 709.563L917.144 713.947L918.843 719.368L919.517 722.429L920.529 725.464L921.554 728.499L922.578 731.56L923.927 734.595L925.276 737.305L926.975 740.016L928.324 742.402L930.023 744.763L931.709 746.462L933.408 747.811L935.444 748.848L937.468 749.173H939.504L941.527 748.485L943.901 747.136L946.274 745.087L948.648 742.052L951.021 738.33L953.732 733.92L956.105 728.499L959.153 721.742L961.864 714.297L964.912 705.477L970.32 687.877L975.404 671.938L980.151 657.372L984.211 644.507L987.933 633.002L991.668 622.847L994.366 614.028L997.077 606.22L999.45 599.813L1001.14 594.391L1002.84 589.982L1004.18 586.584L1005.2 583.873L1005.53 582.174L1005.87 581.162H1006.21L998.413 550.009L956.754 490.4V487.352L957.091 484.304L957.428 479.894L958.102 477.521L958.44 475.147L959.114 472.437L959.789 469.726L960.813 466.678L961.825 463.98L963.174 460.932L964.873 458.222L966.222 455.511L968.258 452.463L970.281 449.753L972.655 447.379L975.365 444.668L978.413 442.632L981.798 440.596L985.521 438.91L989.256 437.224L993.315 435.875L998.062 434.85L1003.15 434.513L1008.23 434.176H1013.99L1020.42 434.85L1026.86 435.875L1033.29 437.224L1039.38 438.573L1044.47 440.596L1049.22 442.632L1053.27 444.668L1056.66 447.042L1059.71 449.415L1062.42 452.126L1064.44 454.837L1066.14 457.885L1067.49 460.595L1068.84 463.643L1069.18 466.691L1069.85 469.739V475.498L1069.18 478.545L1068.84 481.593L1068.16 484.304L1067.14 487.015L1066.46 489.725L1065.45 492.099L1064.43 494.472L1063.42 496.846L1061.38 500.568L1059.69 503.279L1058.35 504.978L1058.01 505.989V507.014L1058.68 510.062L1059.02 512.435L1059.71 514.809L1061.06 517.857L1062.41 521.242L1063.42 522.941L1064.43 524.627L1065.45 526.326L1066.8 528.012L1068.16 529.698L1069.85 531.734L1071.55 533.433L1073.24 535.457L1075.27 537.156L1077.64 539.179L1079.68 540.878L1082.39 542.901L1085.1 544.6L1087.8 546.299L1091.19 547.998L1094.23 550.022L1108.12 556.779L1121.66 563.899L1128.11 567.622L1134.54 571.344L1140.3 574.742L1146.06 578.464L1148.42 580.488L1150.81 582.187L1153.17 583.886L1155.22 585.909L1156.89 587.608L1158.94 589.307L1160.29 591.006L1161.65 593.03L1163 594.729L1164.01 596.428L1164.7 598.451L1165.02 600.15L1165.37 601.849V603.548L1165.02 605.221L1164.36 606.92L1163.67 608.943L1162.99 611.33L1162.3 614.041L1161.97 617.439L1161.29 620.837L1160.96 624.883L1160.64 628.93L1160.29 633.34L1159.6 642.833L1159.28 652.639L1158.95 663.157V673.312L1158.6 683.468V702.443L1158.95 710.224V722.079L1159.28 725.14V726.813L1159.96 728.175L1160.65 730.198L1162 732.584L1162.69 733.933L1163.37 734.945L1164.39 736.307L1165.4 737.655L1166.41 738.667L1167.42 740.029L1168.43 740.716L1169.79 741.378L1171.14 742.065L1172.51 742.415L1173.85 742.739L1175.55 742.415L1177.25 742.065L1178.6 741.053L1180.3 740.042L1182 738.343L1184.02 736.32L1185.72 733.933L1187.75 730.898L1189.77 727.5L1191.82 723.453L1193.84 719.044L1195.86 713.947L1198.25 708.201L1202.3 696.347L1206.37 684.817L1210.09 674.324L1213.46 664.169L1216.86 654.675L1219.9 645.881L1222.61 637.749L1224.99 630.629L1227.02 624.196L1229.04 618.45L1230.74 613.353L1232.1 609.307L1233.11 605.909L1233.8 603.548L1234.13 602.186L1234.45 601.862L1234.8 600.163L1235.46 596.09L1235.81 593.055L1236.14 589.657L1236.49 585.935V581.525L1236.14 579.502L1235.81 577.142L1235.46 574.755L1235.14 572.395L1234.45 570.008L1234.13 567.622L1233.11 564.911L1232.1 562.551L1231.09 559.84L1229.73 557.129L1228.72 554.743L1227.02 552.032L1224.99 549.672L1223.3 547.285L1221.27 544.574L1218.89 542.201L1216.53 539.49L1214.14 536.793L1212.12 533.732L1210.42 530.684L1208.39 527.299L1207.03 523.914L1205.33 520.191L1203.98 516.456L1202.62 512.734L1201.61 509.011L1200.95 504.952L1199.91 501.23L1199.25 497.17L1198.56 493.111L1198.24 489.388L1197.89 485.329L1197.56 481.606L1197.24 477.884V470.79L1197.56 467.404L1197.89 464.357L1198.24 461.309L1198.9 458.598L1199.25 456.224L1199.91 453.851L1200.95 451.828L1201.61 450.129L1202.62 448.43L1203.66 447.418L1204.67 446.744L1206.02 446.056L1207.03 445.719L1208.73 445.382L1210.43 444.37L1212.45 443.696L1216.86 441.322L1221.6 438.949L1224.31 437.6L1227.02 436.588L1230.05 435.564L1233.11 434.215L1236.15 433.54L1239.21 432.516L1242.24 432.178L1245.28 431.504H1251.71L1254.75 431.841L1258.15 432.516L1261.21 433.54L1264.24 434.889L1267.28 436.925L1269.99 439.299L1272.7 442.01L1275.41 445.395L1278.12 449.13L1280.5 453.527L1282.87 458.611L1285.25 464.032L1286.95 470.465L1288.65 477.235L1290.67 484.356L1292.02 490.789L1293.72 496.885L1295.42 502.643L1296.77 507.727L1298.47 512.474L1299.83 516.871L1301.53 520.931L1303.2 524.653L1304.56 527.701L1306.26 530.749L1307.61 533.459L1309.31 535.82L1311.01 538.206L1312.71 539.905L1314.41 541.929L1316.43 543.29L1318.13 544.639L1320.15 546.001L1321.85 547.35L1323.88 548.037L1326.26 549.049L1328.29 550.061L1331 550.748L1335.73 552.097L1341.15 553.796L1347.26 555.495L1353.69 557.881L1357.07 558.893L1360.13 560.592L1363.16 561.941L1366.2 563.64L1368.91 565.663L1371.62 567.687L1374 569.736L1376.71 572.096L1378.74 574.483L1380.76 576.843L1382.81 579.554L1384.83 582.265L1386.53 585.326L1387.88 588.036L1389.24 591.071L1390.59 594.469L1391.95 597.504L1392.97 601.226L1393.63 604.625L1394.31 607.997L1395 611.719L1395.69 615.467V619.19L1396.01 622.912V631.031L1395.69 635.078L1395.34 639.15L1395.01 643.197L1394.33 647.606L1393.64 652.016L1392.63 656.4L1391.62 660.81L1390.93 665.907L1389.92 671.328L1389.26 677.074L1388.57 682.819L1388.24 688.928L1387.89 695.361L1387.57 701.794V707.903L1387.22 713.986L1387.57 720.094L1387.89 725.84L1388.24 731.612L1388.91 737.033L1389.59 742.104L1390.61 746.514L1391.97 750.236L1393.32 753.958L1394.68 756.669L1396.7 758.692L1398.72 760.054L1401.11 760.716L1403.8 760.391L1406.51 759.043L1409.57 756.993L1412.97 753.621L1416.34 749.211L1420.41 743.79L1424.79 736.67L1429.2 728.538L1434.3 719.07L1439.37 708.227L1444.47 696.697L1449.54 685.53L1453.95 675.037L1458.36 664.882L1466.17 645.907L1472.92 628.632L1479.36 612.718L1485.47 598.477L1488.5 591.72L1491.54 585.611L1494.25 579.502L1497.31 574.081L1500.34 568.659L1503.38 563.588L1506.78 558.854L1509.81 554.444L1513.21 550.372L1516.93 546.65L1521 542.927L1525.05 539.542L1529.46 536.494L1533.87 533.797L1538.94 531.086L1544.04 528.712L1549.78 526.676L1555.89 524.64L1562 522.954L1568.76 521.255L1575.88 520.243L1582.64 519.219H1595.5L1601.61 519.556L1607.69 520.23L1613.46 521.579L1619.21 522.941L1624.63 524.627L1630.05 527L1635.15 529.037L1640.22 531.747L1644.96 534.121L1649.69 537.169L1654.45 539.879L1658.83 543.278L1662.91 546.312L1667.32 549.711L1671.36 552.745L1675.43 556.144L1683.22 562.901L1690.34 569.334L1694.06 572.395L1697.46 575.079L1700.83 577.79L1704.23 580.501L1707.26 583.211L1710.66 585.261L1713.72 587.284L1716.76 588.633L1719.79 590.332L1723.19 591.343L1726.91 592.031L1730.31 592.718L1734.03 593.042H1741.48L1745.52 592.355L1749.6 592.031L1753.64 591.019L1757.71 590.332L1761.76 588.983L1765.83 587.621L1769.88 586.272L1774.29 584.91L1778.34 583.211L1782.41 581.188L1786.46 579.489L1790.18 577.466L1794.25 575.443L1797.97 573.419L1801.69 571.37L1805.07 569.01L1808.82 566.986L1811.85 564.6L1815.25 562.577L1818.28 560.19L1820.99 558.167L1823.7 556.144L1826.07 554.094L1828.11 551.734L1830.14 550.035L1832.5 548.011L1834.55 546.312L1837.26 544.613L1840.29 542.914L1843.69 541.215L1847.06 539.866L1850.79 538.167L1854.86 536.819L1858.58 535.457L1862.99 534.108L1867.4 533.083L1871.78 531.734L1880.6 529.698L1889.75 527.325L1898.57 525.626L1907.36 523.94L1915.49 522.241L1922.94 520.892L1929.72 519.193L1935.14 518.181L1937.5 517.507L1939.55 516.832L1940.9 516.495L1942.26 515.821L1943.27 514.121L1943.93 510.736L1944.97 505.652L1945.3 498.545L1945.98 490.413L1946.64 480.595V469.415L1947 457.56L1947.66 430.129V367.81L1947.33 334.607L1947.01 301.755L1946.66 269.914L1946.33 240.109L1945.65 214.027L1945.32 191.68L1945 174.742V160.851V161.188L1945.32 161.525H1947.35L1948.71 161.188L1950.38 160.851L1952.43 160.177L1954.45 159.502L1956.81 158.478L1961.91 156.454L1967.01 154.081L1971.74 152.045L1976.15 150.346L1979.19 150.683L1982.58 151.357L1985.96 151.694L1989.35 152.032L1992.39 152.369L1995.1 152.706L1997.81 153.043H2001.21L2003.23 152.369L2004.24 152.032H2006.95L2007.97 152.706L2008.65 153.043L2009.67 153.731L2010.35 154.405L2011.04 155.092L2011.7 155.767L2012.39 156.792L2013.08 158.14L2013.76 159.502L2015.11 162.887L2016.81 166.61L2018.17 171.694L2019.52 177.452L2020.21 182.199L2021.22 189.994L2021.91 200.837L2022.57 214.04L2023.26 229.967L2023.94 247.917L2024.61 267.903L2025.29 289.913L2026.31 338.342L2027.32 391.181L2028.35 447.405L2029.37 504.641L2030.03 561.552L2030.71 616.751L2031.04 667.891L2031.39 713.947L2031.71 752.584L2031.39 782.375V793.542L2031.04 802.024V807.446L2030.71 809.119L2026.99 812.867L2021.57 818.288L2015.49 824.371L2009.72 829.793L1947.73 832.503L1937.24 757.318H1936.55L1934.53 756.63L1933.17 756.306H1927.41L1925.05 756.967L1922.66 757.979L1921.65 758.329L1920.29 759.017L1918.94 760.028L1917.59 760.69L1916.23 761.727L1914.88 762.739L1913.52 764.088L1911.82 765.45L1910.47 767.149L1909.11 768.822L1907.41 770.871L1906.06 772.894L1904.36 775.255L1902.66 777.641L1900.64 780.028L1898.25 782.712L1893.52 788.134L1887.78 793.905L1881.67 799.651L1875.56 805.396L1869.15 811.168L1862.69 816.589L1850.51 827.082L1840.36 835.214L1833.6 840.96L1830.89 843.009H1829.85L1826.48 843.333L1824.46 843.009H1822.07L1819.36 842.659L1816.32 842.334L1813.26 841.647L1810.23 840.96L1806.83 839.948L1803.46 838.599L1802.1 837.912L1800.4 837.224L1798.7 836.213L1797.35 835.201L1795.99 833.839L1794.64 832.828L1793.29 831.479L1791.93 829.78L1790.92 828.431L1789.56 826.382L1788.54 824.708L1787.19 822.322L1786.18 819.611L1784.82 816.901L1783.81 814.19L1782.46 811.155L1780.41 804.722L1778.39 797.939L1776.69 790.818L1774.99 783.724L1773.32 776.604L1771.96 769.846L1770.61 763.063L1769.92 756.954L1768.91 751.209L1768.58 746.475V739.354L1769.24 732.921L1770.26 724.789L1770.94 714.634L1771.96 703.791L1772.97 691.937L1774.33 680.083L1775.34 668.578L1776.69 658.06L1777.04 654.013L1777.7 649.604L1778.39 645.557L1779.08 641.485L1779.76 637.438L1780.77 633.365L1781.1 629.319L1781.45 625.246H1774.33L1770.61 625.597L1766.88 625.921L1763.16 626.608L1759.41 627.27L1756.04 628.307L1752.32 629.656L1748.92 630.668L1745.2 632.03L1741.8 633.729L1738.43 635.402L1735.03 637.101L1731.39 639.124L1727.99 641.147L1724.59 643.171L1723.24 644.519L1721.54 646.569L1720.53 648.929L1719.52 651.64L1718.83 655.038L1717.82 658.436L1717.5 662.483L1716.81 666.555L1716.12 676.023L1715.43 686.178L1715.11 697.345L1714.78 708.875L1714.43 714.621L1713.77 720.367L1713.42 726.138L1712.74 732.221L1712.07 737.642L1711.06 743.414L1710.02 749.16L1709.01 754.581L1707.66 759.652L1705.96 764.412L1704.27 769.483L1701.88 773.893L1699.86 777.939L1697.15 782.012L1694.11 785.384L1691.08 788.445L1683.96 794.554L1677.17 800.299L1670.41 806.382L1663.29 812.154L1659.57 814.864L1655.85 817.575L1652.45 819.936L1648.73 822.646L1644.68 824.695L1640.6 827.082L1636.55 829.105L1632.5 830.804L1628.09 832.166L1624.02 833.515L1619.29 834.527L1614.88 835.214L1610.14 835.901L1605.41 836.226H1600.31L1594.89 835.538L1589.82 834.877L1584.08 833.515L1578.65 832.166L1572.55 830.117L1566.8 828.094L1560.37 825.059L1553.93 822.024L1547.5 818.301L1540.72 814.553L1534.97 810.507L1529.23 806.434L1523.8 802.712L1519.04 798.989L1514.31 794.943L1510.26 791.545L1506.19 787.822L1499.1 781.389L1492.99 775.281L1490.28 772.57L1487.57 770.21L1485.18 768.186L1482.82 766.137L1480.43 764.464L1478.07 763.102L1475.69 762.09L1473.66 761.766L1471.28 761.416H1469.25L1466.87 762.103L1464.51 762.791L1462.12 764.49L1459.41 766.163L1456.37 768.549L1453.66 771.584L1450.27 774.982L1446.89 778.705L1443.17 783.439L1439.42 788.536L1435.04 793.957L1430.97 798.691L1426.92 803.425L1422.51 807.835L1418.44 811.881L1414.39 815.63L1409.98 818.665L1405.57 821.699L1401.19 824.41L1397.12 826.797L1392.71 829.157L1388.66 830.856L1384.25 832.218L1380.2 833.23L1376.13 833.891L1372.08 834.241L1368.01 834.565L1363.97 834.241L1359.89 833.554L1356.17 832.542L1352.45 831.531L1348.73 829.832L1345.33 827.808L1341.96 825.422L1338.23 823.061L1335.17 820L1332.14 816.628L1329.1 812.906L1326.04 809.158L1323.33 804.774L1320.97 800.014L1318.58 794.943L1316.22 789.521L1314.52 783.776L1312.83 776.993L1311.46 770.235L1310.45 763.115L1309.44 755.307L1309.12 747.525L1308.77 739.393L1308.44 730.937V713.999L1308.77 705.205L1309.12 696.386L1309.44 687.566L1310.13 678.773L1310.82 670.316L1312.16 653.365L1313.86 637.451L1315.22 622.536L1316.57 609.333L1316.9 603.587L1317.25 598.49L1317.57 593.419L1317.9 589.346V585.948L1317.57 583.237V580.864L1316.89 579.502L1316.22 578.841L1315.21 578.153L1314.52 577.466L1313.16 576.778L1312.15 576.117L1311.14 575.43L1309.79 575.079L1308.43 574.418L1305.39 573.731L1302.33 573.043L1298.96 572.719H1292.53L1289.13 573.043L1286.09 573.393L1283.38 574.055L1282.02 574.405L1281.01 575.066L1280 575.417L1278.99 575.741L1277.98 576.428L1277.29 577.116L1276.6 577.777L1275.91 578.464L1275.59 579.476L1275.27 580.838L1274.58 582.537L1273.89 584.897L1272.88 590.319L1271.53 597.102L1269.83 604.884L1268.13 613.703L1266.43 623.171L1264.73 633.327L1262.71 643.158L1260.32 653.65L1257.96 663.831L1255.58 673.637L1254.57 678.371L1253.22 682.78L1251.85 687.19L1250.51 691.6L1249.14 695.322L1247.8 699.044L1246.43 702.443L1244.73 705.477L1241.7 711.91L1237.98 719.355L1233.57 728.175L1229.16 737.318L1224.09 747.149L1218.99 757.305L1213.57 767.46L1208.15 777.615L1202.73 787.446L1197.33 796.59L1194.62 801L1191.91 805.046L1189.2 809.093L1186.81 812.841L1184.42 816.213L1182.06 819.274L1179.68 821.985L1177.65 824.695L1175.27 826.369L1173.25 828.068L1171.22 829.079L1169.52 829.767L1165.48 831.116L1160.38 832.815L1154.27 834.514L1147.18 836.213L1143.44 837.224L1139.72 837.912L1136 838.236L1131.94 838.586L1128.21 838.91H1123.82L1120.09 838.586L1115.97 837.925L1111.91 837.237L1108.18 835.888L1104.45 834.527L1100.73 832.503L1097.35 830.48L1093.96 827.769L1090.91 824.371L1088.2 820.649L1085.49 816.602L1083.12 811.842L1081.08 806.421L1079.4 800.675L1078.03 793.918L1077.02 786.798L1076.35 778.99L1076.01 770.534L1076.35 752.934V736.67L1076.69 721.093L1077.02 706.528L1077.36 693.325L1077.7 680.459L1078.03 668.929V658.436L1078.37 648.605V624.559L1078.03 618.126L1077.7 612.705L1077.36 610.318L1077.02 608.295L1076.69 606.246L1076.01 604.573L1075.34 600.85L1073.99 597.128L1072.64 593.406L1070.6 589.657L1069.93 587.984L1068.58 586.285L1067.57 584.586L1066.54 583.224L1065.19 581.876L1064.17 580.514L1062.82 579.165L1061.47 578.153L1060.12 577.466L1058.77 576.778L1057.42 576.454L1055.74 576.13H1054.39L1052.69 576.454L1051 576.778L1049.32 577.79L1047.62 578.828L1045.92 580.501L1044.23 582.2L1042.2 584.223L1040.51 586.61L1038.48 589.644L1036.79 593.042L1034.75 596.441L1032.72 600.85L1030.68 605.584L1028.65 611.33L1026.61 617.439L1022.21 630.992L1017.47 646.569L1012.38 663.157L1006.96 681.094L1003.91 690.238L1000.86 699.382L997.816 708.525L994.431 717.669L990.708 727.163L987.323 736.307L983.601 745.1L979.541 753.919L975.145 762.376L971.085 770.858L966.338 778.64L961.604 786.084L956.857 793.205L951.449 799.962L946.028 806.071L940.606 811.817L934.51 816.576L928.415 820.96L921.982 824.708L915.549 827.393L909.116 829.442L903.02 830.454H897.171L892.086 829.442L887.339 828.081L882.943 825.37L878.883 822.659L875.161 818.937L871.776 814.89L868.728 810.481L866.017 805.383L863.306 799.962L860.933 794.567L858.897 788.795L856.86 782.686L855.162 776.941L853.475 770.858L852.114 764.749L850.765 759.004L849.403 753.232L848.054 747.811L847.029 742.739L845.681 738.006L844.332 733.596L843.32 729.874L841.958 726.475L840.609 724.089L839.26 722.066L837.574 720.717L835.875 720.367L834.176 721.054L832.153 722.416L828.093 726.462L824.034 730.509L820.312 734.582L817.264 738.628L814.216 742.701L811.168 746.747L808.794 750.469L806.421 754.192L802.362 760.975L798.963 767.084L796.253 772.155L794.229 775.553L792.881 777.576L790.507 779.963L787.796 783.335L783.737 787.057L779.677 791.13L774.593 795.539L769.172 799.923L763.75 804.683L757.992 809.067L752.233 813.477L746.475 817.549L740.716 821.271L738.006 822.971L735.295 824.319L732.584 825.681L730.211 827.03L727.837 828.042L725.464 828.729L723.427 829.417L721.391 829.741H719.355L716.982 829.417L714.945 829.066L712.572 828.055L709.861 826.706L707.488 825.344L704.79 823.321L702.079 821.297L699.706 818.911L696.995 816.55L694.297 813.49L691.587 810.455L689.213 807.057L686.516 803.659L684.142 799.612L681.769 795.89L679.732 791.48L677.696 787.07L675.66 782.66L673.974 777.927L672.625 773.192L671.276 768.121L670.264 762.7L669.577 757.279L668.903 751.857L668.565 746.436V740.69L669.24 734.582L669.914 728.836L670.926 723.064L672.275 716.982L673.974 710.549L678.371 698.694L682.093 687.501L685.828 677.009L689.551 667.178L692.936 658.034L695.983 649.578L699.031 642.133L701.742 635.35L704.453 629.604L706.476 624.183L708.512 619.773L709.861 616.051L711.21 613.34L712.222 611.317L712.896 609.968L713.233 609.618L713.57 607.919L714.245 603.185L714.919 600.15L715.257 596.428V592.705L714.919 590.682L714.582 588.633L714.245 586.934L713.908 584.91L713.259 583.224L712.585 581.201L711.56 579.502L710.549 577.803L709.2 576.13L707.501 574.431L705.815 573.069L704.129 572.057L701.755 570.709L699.382 569.697L696.671 569.01L693.623 568.659L690.575 568.335L687.19 568.011H679.732L672.275 568.335L664.83 568.659L657.71 569.347L650.602 570.034L643.832 570.358L637.062 571.37L630.966 572.057L620.123 573.419L611.654 574.768L606.233 575.456L604.209 575.78L601.499 638.099L599.125 977.817L580.838 993.393L534.095 1001.18L508.013 983.238L502.929 586.298L378.639 591.369L375.929 617.465L378.639 957.156V961.228L378.977 965.275V968.997L378.639 972.719V976.117L378.302 979.152L377.628 982.213L376.953 984.924L376.279 987.284L375.254 989.671L374.917 990.682L374.243 991.37L373.568 992.382L372.881 993.069L372.206 993.73L371.532 994.418L370.507 994.742L369.496 995.092L368.821 995.78H367.797L366.785 996.104H365.436L277.371 1001.18H274.998L272.624 1000.85L270.588 1000.53L268.552 999.839L266.516 999.152L264.83 998.14L263.481 996.791L262.132 995.43L261.12 994.081L259.771 992.382L259.084 990.358L258.072 987.972L257.398 985.949L257.061 983.562L256.724 980.851V977.817L254.026 604.586L0 635.389V588.646L259.097 562.914V129.724L260.446 31.1663L261.133 27.444L261.808 23.7088L262.145 21.6855L262.819 19.9864L263.157 18.3004L263.831 16.6013L264.505 14.9152L265.53 13.5664L266.542 11.8673L267.216 10.5185L268.241 9.15667L269.59 7.80781L270.951 6.45896L272.3 5.1101H366.785V5.08418V5.08418ZM1927.15 593.406L1925.45 593.73L1923.43 594.742L1921.41 595.753L1919.36 597.452L1917 599.476L1914.29 601.499L1911.9 604.209L1909.19 606.92L1906.48 609.981L1903.77 613.353L1901.06 616.751L1898.02 620.474L1895.31 624.196L1892.28 628.268L1889.21 632.315L1886.18 636.725L1880.43 645.868L1874.66 655.012L1868.92 664.156L1863.85 673.624L1861.46 678.033L1858.75 682.767L1856.73 687.177L1854.68 691.587L1852.65 695.633L1850.95 699.706L1849.28 703.752L1847.92 707.825L1846.57 711.547L1845.21 714.945L1844.2 718.668L1843.19 722.39L1842.17 726.112L1841.49 729.835L1840.8 733.557L1839.79 737.279L1839.13 744.037L1838.09 750.82L1837.76 753.855V756.89L1837.44 759.95V765.696L1837.76 768.082V770.793L1838.09 772.816L1838.44 775.177L1838.76 776.876L1839.11 778.575L1839.77 780.274L1840.46 781.623L1841.15 782.635L1841.84 783.672L1842.5 784.334L1843.51 785.021H1845.21L1846.22 784.697L1847.23 784.009L1848.59 783.322L1849.94 782.635L1851.64 781.623L1855.04 778.912L1858.76 775.877L1862.81 772.479L1866.88 768.433L1871.29 764.386L1876.02 759.626L1880.43 754.892L1884.48 750.158L1888.55 745.424L1892.28 740.327L1893.97 737.967L1895.65 735.58L1897.01 733.557L1898.36 731.17L1899.72 728.81L1900.73 726.761L1901.74 724.737L1902.43 722.714L1905.8 713.246L1910.21 701.042L1915.31 687.488L1920.73 673.273L1925.8 660.044L1929.88 648.54L1931.57 643.806L1932.92 639.734L1933.93 637.023L1934.28 635.324L1934.95 631.602L1935.96 625.856L1936.31 622.458L1937 618.736L1937.32 615.013L1937.64 610.967V607.244L1937.32 603.522L1937 601.823L1936.65 600.461L1936.32 599.112L1935.63 597.751L1934.95 596.402L1934.28 595.39L1933.25 594.703L1932.24 593.691L1931.22 593.367L1929.88 593.017H1928.86L1927.15 593.406V593.406ZM1553.56 636.063L1553.23 638.45L1552.55 642.496L1552.22 648.268L1551.87 655.025L1551.55 663.157L1551.22 672.301L1550.87 681.769V711.586L1551.56 720.73L1551.88 729.186L1552.57 733.233L1552.9 736.981L1553.25 740.016L1553.93 743.414L1554.59 745.774L1555.28 748.161L1555.97 749.86L1556.98 751.533L1561.03 757.305L1567.14 765.437L1568.84 767.46L1570.53 769.846L1572.56 771.87L1574.58 773.893L1576.6 775.916L1578.99 777.939L1581.38 779.989L1584.09 781.662L1586.8 783.361L1589.51 785.06L1592.54 786.072L1595.94 787.083L1598.98 788.095L1602.38 788.445L1606.1 788.769H1609.82L1613.54 788.445L1617.59 787.758L1622 786.746L1626.41 785.384L1630.82 783.361L1635.55 781.338L1640.6 778.653L1645.69 775.255L1650.43 771.532L1655.16 768.16L1659.23 764.762L1662.96 761.364L1666.36 757.966L1669.39 754.594L1672.1 750.872L1674.46 747.474L1676.51 744.075L1678.21 741.04L1679.56 737.642L1680.91 734.607L1681.95 731.209L1682.61 728.175L1682.96 725.14L1683.28 722.079L1683.61 719.044V713.622L1683.28 710.912L1682.96 705.815L1681.95 700.743L1680.91 696.671L1680.25 692.624L1679.23 689.226L1678.88 686.191V683.481L1679.23 681.094V678.734L1679.56 676.347L1679.88 673.987L1680.23 671.938V669.914L1679.88 668.215L1679.56 667.204L1679.23 666.192L1678.88 665.505L1678.56 664.843L1677.87 663.831L1677.19 663.144L1676.52 662.457L1675.51 661.769L1674.47 661.108L1673.13 660.42L1671.78 660.07L1670.41 659.409L1668.39 658.721L1666.69 658.397L1664.67 658.047L1662.28 657.36L1657.21 656.698L1651.44 655.686L1645.36 654.325L1638.92 652.976L1625.7 649.578L1612.14 646.18L1599.28 642.808L1588.11 639.747L1579.65 637.723L1574.23 636.024L1570.83 635.013L1567.8 634.325L1564.4 633.314L1561.69 632.989L1560.34 632.639H1558.98L1557.63 632.989L1556.62 633.314L1555.58 633.664L1554.92 634.325L1554.23 635.013L1553.56 636.063V636.063ZM1611.49 560.553L1609.79 561.215L1607.74 561.565L1606.4 562.226L1604.7 563.264L1603 564.276L1601.99 565.287L1600.64 566.636L1599.28 567.998L1598.61 569.347L1597.58 571.046L1596.57 572.745L1596.24 574.444L1595.55 576.143L1595.23 577.816L1594.88 579.865V585.935L1595.23 587.634L1595.92 589.657L1596.24 591.707L1596.93 593.73L1597.94 595.753L1598.95 597.777L1600.3 599.476L1601.66 601.499L1603.01 603.198L1604.71 604.897L1606.41 606.246L1608.43 607.945L1610.82 609.307L1613.18 610.655L1617.94 613.366L1622.67 615.415L1627.08 617.776L1631.47 619.475L1635.54 621.174L1639.59 622.873L1643.31 623.885L1647.06 624.896L1648.41 625.22H1650.1L1651.8 625.571H1655.86L1657.56 625.22H1658.57L1659.94 624.559L1660.95 624.209L1661.96 623.521L1662.97 622.86L1663.98 621.848L1664.99 620.837L1665.68 619.799L1666.37 618.787L1667.03 617.439L1667.72 616.077L1668.04 614.378L1668.39 612.705L1669.4 609.307L1670.09 605.909L1670.41 603.885V594.067L1670.09 592.044L1669.74 590.345L1669.42 588.321L1668.73 586.623L1668.4 584.599L1667.72 582.9L1666.71 581.201L1665.69 579.502L1664.68 577.803L1663.67 576.13L1662.31 574.768L1660.96 573.419L1659.26 572.408L1657.9 571.046L1655.88 570.034L1653.85 569.347L1651.83 568.335L1649.78 567.648L1645.4 566.986L1641.67 565.975L1638.96 564.937L1636.25 563.925L1632.18 562.226L1629.15 560.878L1627.78 560.553L1626.43 560.203L1624.74 559.879H1618.3L1615.27 560.203L1611.49 560.553V560.553ZM2223.5 485.692L2221.8 486.029H2219.44L2216.73 486.703L2213.33 487.728L2209.61 488.74L2205.53 489.764L2200.8 491.45L2196.07 493.136L2190.97 494.835L2185.22 496.859L2179.48 499.569L2173.37 501.943L2167.29 504.641L2160.83 507.689L2154.39 511.074L2147.96 514.121L2141.2 517.844L2134.77 521.903L2127.99 525.626L2121.56 530.035L2115.12 534.432L2108.69 539.166L2102.26 543.9L2096.51 548.997L2090.4 554.068L2084.98 559.49L2079.56 565.261L2074.83 571.007L2070.44 577.116L2066.03 583.198L2062.31 589.631L2058.91 596.064L2056.2 602.848L2053.81 609.281L2052.12 616.038L2050.77 622.471L2050.08 628.904L2049.75 635.013V641.446L2050.44 647.554L2051.45 653.3L2052.8 659.409L2054.5 665.154L2056.52 670.9L2058.91 676.321L2061.62 681.743L2065.02 686.84L2068.39 691.911L2072.11 697.008L2075.84 701.742L2079.91 706.152L2084.32 710.562L2089.05 714.971L2093.79 718.694L2098.88 722.416L2103.96 726.138L2109.38 729.51L2114.8 732.571L2120.22 735.606L2125.97 737.993L2131.39 740.353L2137.16 742.402L2142.9 744.426L2148.65 745.774L2151.68 746.462L2154.39 747.474L2157.46 748.485L2160.17 749.173L2162.88 750.521L2165.59 751.533L2167.95 752.571L2170.66 753.919L2173.05 755.268L2175.76 756.63L2178.12 757.979L2180.14 759.678L2182.53 761.04L2184.55 762.739L2186.6 764.438L2188.96 766.111L2190.66 767.81L2192.68 769.509L2194.38 771.532L2196.08 773.231L2197.78 775.255L2199.13 776.954L2200.49 778.977L2201.84 781.364L2203.2 783.387L2204.21 785.41L2205.22 787.459L2206.23 789.483L2206.92 791.506L2207.61 793.892L2207.93 795.916L2208.62 798.302L2208.95 800.325V802.686L2209.27 805.072V809.482L2208.95 811.842L2208.62 813.892L2208.27 816.252L2207.95 818.301L2207.26 820.662L2206.25 822.685L2205.24 825.072L2204.22 827.095L2203.21 829.481L2201.85 831.505L2200.15 833.528L2198.48 835.914L2196.78 837.938L2194.39 839.961L2192.37 841.984L2189.98 844.371L2187.27 846.07L2184.56 848.43L2181.53 850.479L2178.49 852.503L2175.09 854.202L2171.37 856.225L2167.65 858.248L2163.58 859.947L2159.53 861.971L2154.8 863.67L2150.06 865.369L2140.57 869.091L2131.1 872.813L2121.96 876.536L2112.81 880.608L2108.4 882.631L2104.36 884.655L2100.28 886.354L2096.24 888.74L2092.17 890.763L2088.79 892.787L2085.05 895.173L2081.32 897.196L2077.95 899.557L2074.89 901.943L2071.86 904.304L2068.82 906.69L2066.11 909.077L2063.72 911.437L2061.36 914.148L2059.31 916.534L2057.29 918.921L2055.59 921.606L2054.24 924.316L2052.88 927.027L2051.87 929.738L2050.86 932.448L2050.17 935.159V938.22L2049.85 940.243V942.954L2050.17 945.314V948.025L2050.52 950.736L2050.84 953.446L2051.53 956.157L2052.19 959.218L2052.88 961.929L2053.57 964.639L2054.58 967.674L2055.94 970.385L2057.29 973.096L2058.3 975.806L2060 978.167L2061.36 980.877L2063.04 983.264L2065.08 985.287L2067.11 987.31L2068.81 989.36L2071.17 991.033L2073.55 992.395L2075.91 993.743L2078.63 994.755L2081.34 995.442L2084.05 995.793L2087.11 996.117L2090.14 995.793L2093.18 995.442L2096.9 994.431L2100.3 993.419L2104.02 991.72L2111.83 987.998L2119.27 984.276L2126.39 980.553L2133.49 976.481L2140.27 972.758L2146.7 969.036L2152.79 964.99L2158.9 961.267L2165 957.545L2170.43 953.472L2175.85 949.75L2181.27 946.028L2190.74 938.907L2199.88 931.787L2207.69 925.354L2215.13 919.271L2221.57 913.85L2227.65 909.116L2232.41 905.043L2236.79 902.008L2238.84 900.646L2240.86 899.635L2242.21 898.973L2243.91 898.286L2245.27 897.599L2246.62 896.25L2248.32 894.2L2250.02 891.84L2251.72 888.442L2253.42 885.044L2255.09 880.997L2256.45 876.587L2258.15 871.854L2259.85 866.756L2261.2 861.335L2262.56 855.589L2263.91 849.844L2265.27 843.735L2266.28 837.302L2266.95 831.193L2267.63 824.786L2268.32 818.353L2268.65 811.894V799.379L2268.32 793.27L2267.63 787.161L2266.95 781.415L2265.6 775.994L2264.24 770.923L2262.21 765.826L2260.19 761.092L2257.48 757.019L2254.77 753.297L2251.37 749.925L2247.65 747.214L2239.52 742.117L2231.38 737.383L2223.28 732.649L2214.79 727.915L2206.34 723.505L2197.88 719.096L2189.43 714.686L2181.29 710.639L2173.16 706.23L2165.72 702.507L2158.25 698.435L2151.49 694.713L2145.38 691.34L2139.64 687.592L2136.92 686.243L2134.56 684.544L2132.18 682.845L2130.15 681.146L2128.1 679.797L2126.43 677.774L2125.07 676.075L2124.06 674.052L2123.37 672.002L2122.71 669.642V662.522L2123.37 660.135L2124.06 657.424L2124.75 654.714L2126.09 652.029L2127.46 649.318L2129.16 646.257L2130.83 643.547L2132.88 640.512L2134.9 637.801L2137.29 634.766L2139.65 631.705L2142.36 628.67L2145.39 625.635L2148.45 622.575L2151.49 619.54L2154.89 616.505L2158.26 613.444L2162.01 610.409L2165.73 607.698L2169.45 604.663L2173.5 601.953L2177.57 598.892L2181.96 596.181L2186.03 593.821L2190.07 591.434L2193.8 589.411L2197.52 588.062L2201.24 586.7L2204.64 585.351L2208.04 584.314L2211.07 583.652L2217.18 582.641L2222.6 581.603L2228.02 580.942L2233.1 580.254L2235.48 579.567L2237.87 579.243L2240.23 578.555L2242.62 577.544L2244.98 576.532L2247.36 575.17L2249.39 573.497L2251.77 571.798L2254.13 569.775L2256.52 567.388L2258.88 564.353L2261.27 561.293L2263.98 557.92L2266.36 553.511L2269.07 549.101L2271.78 544.367L2274.14 539.27L2276.17 534.536L2277.53 529.789L2278.88 525.729L2279.23 521.67L2279.55 518.285L2279.23 514.9L2278.88 511.515L2277.87 508.804L2276.52 506.093L2275.16 503.383L2273.46 501.359L2271.43 499.323L2269.07 497.287L2266.69 495.601L2264.3 494.239L2261.59 492.89L2258.88 491.541L2256.17 490.516L2253.13 489.505L2250.42 488.83L2247.39 488.156L2244.68 487.482L2241.64 487.144L2236.22 486.457L2231.46 486.12L2227.08 485.783H2223.5V485.692V485.692Z" fill="#D9B5A1"/>
</svg>
