<svg width="2280" height="770" viewBox="0 0 2280 770" fill="none" xmlns="http://www.w3.org/2000/svg">
<path fill-rule="evenodd" clip-rule="evenodd" d="M1622.18 273.636C1587.95 203.236 1515.76 154.716 1432.23 154.716C1315.65 154.716 1221.17 249.227 1221.17 365.799C1221.17 482.372 1315.65 576.882 1432.23 576.882C1515.76 576.882 1587.97 528.375 1622.18 457.975L1651.97 457.262C1616.12 543.291 1531.24 603.756 1432.23 603.756C1300.8 603.756 1194.26 497.235 1194.26 365.799C1194.26 234.377 1300.8 127.83 1432.23 127.83C1530.8 127.83 1615.37 187.763 1651.49 273.169L1622.18 273.636V273.636ZM942.526 154.716C825.941 154.716 731.443 249.227 731.443 365.799C731.443 482.372 825.954 576.882 942.526 576.882C1059.1 576.882 1153.6 482.372 1153.6 365.799C1153.6 249.227 1059.11 154.716 942.526 154.716V154.716ZM942.526 127.843C1034.49 127.843 1114.23 180.046 1153.83 256.425V139.97H1180.68V605.091H1153.83V475.212C1114.23 551.565 1034.49 603.769 942.526 603.769C811.103 603.769 704.556 497.248 704.556 365.812C704.556 234.377 811.103 127.843 942.526 127.843V127.843ZM506.482 129.464C431.919 129.464 368.238 175.611 342.129 240.849C316.021 175.611 252.34 129.464 177.777 129.464C113.823 129.464 57.9748 163.471 26.8344 214.274V139.97H0V605.091H26.8344V290.575C34.8238 214.261 99.3484 154.768 177.777 154.768C256.801 154.768 321.52 215.194 328.719 292.339V605.091H355.553V292.326C362.738 215.181 427.47 154.755 506.495 154.755C587.686 154.755 653.793 218.541 657.891 298.72H657.437V605.078H684.272V298.72H683.195C679.045 204.585 601.641 129.464 506.482 129.464V129.464ZM1998.94 140.035L1827.7 562.213L1658.22 140.035L1630.01 140.022L1813.16 598.036L1744.2 768.057L1773.54 769.146L2029.42 140.022L1998.94 140.035V140.035ZM2262.59 237.23C2262.59 209.488 2251.16 182.77 2230.4 162.005C2208.08 139.684 2177.56 126.896 2146.68 126.896C2085.84 126.896 2036.36 176.389 2036.36 237.23C2036.36 296.333 2064.55 328.174 2140.37 354.697C2219.46 384.437 2254.82 419.974 2254.82 469.778C2254.82 531.864 2204.3 582.407 2142.22 582.407C2112.74 582.407 2084.59 570.294 2062.96 548.336C2038.9 523.914 2024.93 489.233 2023.09 449.701L1998.47 449.753C2000.39 495.834 2016.86 536.585 2045.44 565.624C2071.75 592.303 2106.11 607.011 2142.23 607.011C2160.25 607.055 2178.11 603.524 2194.76 596.623C2211.41 589.721 2226.52 579.587 2239.23 566.805C2265.17 540.891 2279.44 506.443 2279.44 469.791C2279.44 389.975 2204.89 352.687 2148.8 331.585C2083.07 308.59 2060.99 284.816 2060.99 237.243C2060.99 214.338 2069.91 192.809 2086.1 176.622C2102.28 160.436 2123.81 151.513 2146.72 151.513C2171.14 151.513 2195.3 161.681 2213.03 179.411C2229.17 195.532 2238.04 216.076 2238.04 237.243H2262.59V237.23V237.23ZM2025.68 36.017H2063.87L2075.62 0L2087.34 36.017H2125.42L2094.59 58.3769L2106.39 94.5885L2075.56 72.1768L2044.89 94.4977L2056.62 58.4289L2025.68 36.017V36.017Z" fill="#D9B5A1"/>
</svg>
