<svg width="727" height="707" viewBox="0 0 727 707" fill="none" xmlns="http://www.w3.org/2000/svg">
<path d="M373 651C542.551 651 680 513.551 680 344C680 174.449 542.551 37 373 37C203.449 37 66 174.449 66 344C66 513.551 203.449 651 373 651Z" fill="#EFE8E3"/>
<path d="M135.234 77.8763L135.234 77.8764C61.6978 136.096 15.2297 219.467 4.39841 312.624C-6.43284 405.78 19.6576 497.59 77.877 571.126C136.096 644.662 219.467 691.13 312.624 701.961C405.781 712.802 497.601 686.702 571.127 628.483C644.662 570.263 691.13 486.892 701.962 393.735C712.793 300.578 686.692 208.769 628.483 135.233L626.915 136.474L628.483 135.233C570.264 61.6972 486.893 15.2291 393.736 4.39785C300.579 -6.43342 208.769 19.6672 135.234 77.8763ZM139.616 83.4026C211.681 26.3518 301.641 0.782373 392.934 11.4011C484.227 22.0198 565.916 67.5517 622.967 139.616C680.018 211.68 705.587 301.64 694.968 392.933C684.35 484.227 638.818 565.916 566.754 622.966C494.69 680.017 404.729 705.587 313.436 694.968C222.143 684.349 140.454 638.817 83.4031 566.753C26.3524 494.689 0.782927 404.729 11.4016 313.436C22.0204 222.142 67.5523 140.453 139.616 83.4026Z" fill="#EFE8E3" stroke="#EFE8E3" stroke-width="4"/>
<path d="M43.8322 304.769L43.8321 304.769C33.2962 395.424 58.6891 484.761 115.336 556.323C171.983 627.885 253.114 673.096 343.769 683.642L343.942 682.152L343.769 683.642C434.424 694.178 523.761 668.785 595.323 612.138C666.885 555.491 712.096 474.36 722.642 383.705L721.152 383.532L722.642 383.705C733.178 293.05 707.785 203.713 651.138 132.151C594.491 60.5891 513.36 15.3781 422.705 4.83216L422.705 4.83215C332.05 -5.70377 242.713 19.6891 171.151 76.336C99.5891 132.983 54.3781 214.114 43.8322 304.769ZM174.853 81.0082C245.171 25.3451 332.944 0.398016 422.019 10.7521C511.094 21.1161 590.803 65.5351 646.466 135.843C702.129 206.161 727.076 293.934 716.722 383.009C706.368 472.084 661.939 551.793 591.631 607.456C521.313 663.119 433.54 688.066 344.465 677.712C255.391 667.358 175.681 622.929 120.018 552.621C64.3551 482.303 39.408 394.53 49.7621 305.455C60.1161 216.381 104.545 136.671 174.853 81.0082Z" fill="#DFD9D7" stroke="#DFD9D7" stroke-width="3"/>
<path d="M179.078 518.02C172.216 518.02 168.784 515.405 168.784 510.176C168.784 505.928 173.686 503.641 183.49 503.314C187.085 502.987 191.17 500.373 195.745 495.471C200.32 490.242 203.588 483.379 205.549 474.882C207.51 466.386 209.634 437.301 211.922 387.627C214.209 337.954 215.353 299.065 215.353 270.961C215.353 242.529 212.085 222.105 205.549 209.686C199.34 197.268 185.614 188.608 164.373 183.706C160.124 182.725 158 180.275 158 176.353C158 171.451 160.941 169 166.824 169L192.804 170.961L229.569 169.98C235.778 169.98 239.699 172.268 241.333 176.843C245.255 185.34 252.281 200.699 262.412 222.922C272.542 244.817 280.549 262.301 286.431 275.373C292.641 288.444 300.484 305.111 309.961 325.373C319.438 345.634 327.118 362.137 333 374.882C338.882 387.301 344.928 399.882 351.137 412.627C357.673 425.373 362.575 434.85 365.843 441.059C369.438 446.941 371.725 449.882 372.706 449.882C373.686 449.882 374.667 449.392 375.647 448.412C376.954 447.105 378.098 445.471 379.078 443.51C380.386 441.549 381.366 439.588 382.02 437.627C383 435.667 384.144 433.216 385.451 430.275C387.085 427.007 388.229 424.556 388.882 422.922L452.118 292.529C469.438 257.235 481.039 232.562 486.922 218.51L498.196 194C499.176 191.386 499.83 189.425 500.157 188.118C500.81 186.484 501.301 185.34 501.627 184.686C501.954 183.706 502.281 182.889 502.608 182.235C502.935 181.582 503.425 180.111 504.078 177.824C505.059 175.536 506.039 173.902 507.02 172.922C509.634 170.307 514.373 169 521.235 169L563.392 169.98C568.948 169.98 571.725 172.105 571.725 176.353C571.725 179.621 570.582 182.072 568.294 183.706C566.333 185.013 561.595 186.157 554.078 187.137C546.889 188.118 541.66 192.203 538.392 199.392C535.124 206.582 533.49 226.353 533.49 258.706C533.49 290.732 534.471 324.719 536.431 360.667C538.392 396.288 539.373 418.673 539.373 427.824C539.373 460.503 541.987 481.418 547.216 490.569C552.444 499.392 563.392 503.804 580.059 503.804C582.346 503.804 584.307 504.621 585.941 506.255C587.902 507.889 588.882 509.359 588.882 510.667C588.882 515.895 587.085 518.51 583.49 518.51H578.098L528.098 516.549C528.098 516.549 511.105 517.366 477.118 519C471.235 519 468.294 516.712 468.294 512.137C468.294 507.235 472.706 504.294 481.529 503.314C484.797 502.987 488.229 501.026 491.824 497.431C495.745 493.51 498.359 488.118 499.667 481.255C501.301 474.065 502.118 464.261 502.118 451.843C502.118 439.425 501.791 425.863 501.137 411.157C500.81 396.451 500.32 382.235 499.667 368.51C499.013 354.458 498.359 341.386 497.706 329.294C497.052 316.876 496.562 306.745 496.235 298.902L495.255 287.137C495.255 273.085 493.784 266.059 490.843 266.059C489.863 266.059 488.882 266.549 487.902 267.529C487.248 268.51 486.595 269.327 485.941 269.98C485.288 270.634 484.634 271.778 483.98 273.412C483.327 274.719 482.673 275.863 482.02 276.843C481.366 277.824 480.549 279.294 479.569 281.255C478.588 282.889 477.771 284.359 477.118 285.667L474.667 291.059C473.359 293.346 472.379 295.307 471.725 296.941L403.588 434.686C395.745 450.699 388.065 466.386 380.549 481.745C373.359 497.105 369.111 505.928 367.804 508.216C366.497 510.176 364.536 511.157 361.922 511.157C359.634 511.157 357.51 509.85 355.549 507.235C353.588 504.294 350.647 498.085 346.725 488.608C342.804 479.131 339.373 471.288 336.431 465.078C276.627 343.51 246.072 281.908 244.765 280.275C243.458 278.314 242.314 277.333 241.333 277.333C238.719 277.333 237.412 283.869 237.412 296.941L233 426.353V448.412C233 475.209 238.392 491.712 249.176 497.922C254.732 501.19 260.124 502.987 265.353 503.314C273.523 504.294 277.608 506.582 277.608 510.176C277.608 513.444 277.118 515.732 276.137 517.039C275.157 518.02 273.196 518.51 270.255 518.51L219.275 516.549L179.078 518.02Z" fill="white"/>
</svg>
