<svg width="2500" height="963" viewBox="0 0 2500 963" fill="none" xmlns="http://www.w3.org/2000/svg">
<path d="M1251.35 957.68C1246.83 952.401 1237.78 927.516 1230.24 901.122C1223.45 875.482 1214.4 854.367 1211.39 854.367C1208.37 854.367 1208.37 844.564 1212.14 832.498C1215.16 820.432 1216.66 808.366 1213.65 806.104C1211.39 803.842 1213.65 801.579 1218.17 801.579C1223.45 801.579 1231.75 813.645 1237.78 827.973C1243.81 842.301 1252.11 854.367 1255.12 854.367C1269.45 854.367 1289.81 778.202 1289.81 728.43C1289.81 714.856 1293.58 703.545 1297.35 703.545C1301.12 703.545 1301.88 695.25 1299.62 684.692C1296.6 674.134 1297.35 665.839 1301.12 665.839C1309.42 665.839 1341.85 478.065 1343.36 420.753C1343.36 408.687 1347.13 395.867 1351.65 392.851C1356.17 389.08 1355.42 386.818 1349.39 386.818C1343.35 386.818 1341.85 383.047 1345.62 377.769C1353.16 364.949 1355.42 352.129 1359.95 303.866C1368.99 205.831 1370.5 93.4688 1362.96 88.9441C1350.9 81.403 1354.67 60.2879 1370.5 39.9269C1383.32 24.0906 1386.34 22.5824 1393.13 32.3858C1396.9 38.4187 1400.67 52.7468 1400.67 63.3044C1400.67 73.8619 1402.93 85.1736 1405.95 87.4359C1408.96 90.4524 1411.98 119.109 1412.73 151.535C1413.49 183.208 1419.52 235.242 1425.55 266.16C1436.86 318.948 1442.9 366.457 1449.68 446.393C1454.21 499.181 1470.05 500.689 1471.55 447.901C1471.55 431.311 1475.32 419.999 1479.1 422.261C1482.87 425.278 1484.37 419.999 1482.11 410.95C1479.1 401.9 1480.6 392.097 1485.13 389.835C1488.9 387.572 1491.16 377.769 1490.41 369.473C1489.65 360.424 1491.16 347.604 1493.42 341.571C1501.72 321.21 1520.57 217.897 1516.8 212.618C1515.29 209.602 1516.8 205.077 1521.33 202.061C1525.85 199.044 1527.36 193.766 1525.1 189.995C1522.08 186.224 1522.83 178.683 1526.6 174.159C1529.62 168.88 1532.64 162.093 1533.39 159.076C1534.15 155.306 1535.65 150.781 1536.41 147.765C1537.16 143.994 1538.67 133.437 1540.18 122.879C1540.93 112.322 1542.44 98.7476 1542.44 91.9606C1544.7 75.3701 1565.06 76.8784 1571.1 94.2229C1573.36 101.764 1572.6 114.584 1570.34 123.633C1563.56 143.24 1562.8 488.623 1569.59 498.427C1571.85 502.197 1575.62 536.886 1577.88 576.1C1583.92 673.38 1586.93 703.545 1592.21 708.824C1600.51 717.119 1605.79 705.053 1606.54 677.905C1607.29 662.823 1609.56 650.757 1612.57 650.757C1621.62 650.757 1625.39 699.774 1618.61 737.48C1614.84 758.595 1611.06 779.71 1610.31 784.989C1609.56 789.513 1606.54 794.038 1604.28 794.038C1601.26 794.038 1594.47 803.842 1589.2 815.907C1584.67 827.973 1576.38 837.022 1571.1 834.76C1562.05 830.99 1542.44 787.251 1538.67 763.874C1532.64 717.873 1528.11 663.577 1528.87 630.396C1529.62 608.527 1526.6 590.428 1522.83 590.428C1518.31 590.428 1516.8 545.181 1518.31 479.574C1522.08 342.325 1516.05 337.047 1502.47 466C1499.46 490.885 1494.93 521.804 1491.16 533.87C1479.85 573.084 1469.29 650.757 1473.82 662.823C1476.08 668.102 1473.82 673.38 1468.54 673.38C1464.01 673.38 1461 679.413 1461.75 686.954C1462.5 693.741 1461.75 703.545 1461 707.315C1459.49 711.84 1457.98 725.414 1457.23 737.48C1454.96 780.464 1444.41 816.661 1433.85 816.661C1428.57 816.661 1422.54 814.399 1421.03 811.383C1414.24 800.825 1406.7 708.069 1406.7 655.282C1407.45 625.871 1404.44 598.723 1401.42 594.953C1397.65 590.428 1395.39 560.264 1396.14 527.837C1396.9 495.41 1395.39 467.508 1392.37 465.246C1389.36 463.737 1388.6 435.081 1390.11 401.9C1392.37 362.686 1390.86 341.571 1386.34 341.571C1381.81 341.571 1377.29 350.621 1377.29 362.686C1374.27 425.278 1371.26 466.754 1369.75 469.77C1368.99 472.033 1367.49 487.115 1366.73 503.705C1364.47 533.87 1358.44 570.821 1350.14 605.51C1344.86 627.38 1338.83 705.053 1339.58 735.972C1339.58 747.283 1336.57 756.333 1332.04 756.333C1327.52 756.333 1326.01 759.349 1328.27 763.12C1330.54 766.89 1329.03 779.71 1325.26 791.022C1321.49 803.087 1316.96 826.465 1315.45 843.055C1313.94 859.646 1310.17 878.499 1307.91 884.531C1305.65 890.564 1300.37 907.909 1295.85 922.237C1286.04 953.91 1262.67 972.008 1251.35 957.68V957.68ZM34.2179 898.105C28.9392 888.302 20.6439 858.892 16.1193 831.744C10.8405 804.596 4.80761 776.694 1.79116 769.907C-1.97939 760.103 0.282941 756.333 7.82405 756.333C14.6111 756.333 23.6604 767.644 28.1851 782.726C39.4967 816.661 54.5789 807.612 62.1201 761.611C71.9235 705.807 74.1858 692.987 81.7269 659.052C85.4975 640.954 87.0057 619.838 83.9893 611.543C81.727 604.002 83.9893 592.69 88.5139 586.658C93.7927 580.625 96.0551 568.559 93.7927 560.264C91.5304 551.968 93.0386 545.181 96.0551 545.181C99.8256 545.181 102.088 532.362 102.088 517.279C101.334 501.443 103.596 476.557 106.613 462.229C117.924 399.638 123.203 214.127 115.662 104.026C111.137 33.894 117.924 18.8118 146.581 37.6646C158.646 45.9598 163.925 55.0091 161.663 64.0585C159.4 71.5996 160.909 79.8948 165.433 82.1571C169.204 84.4195 170.712 94.2229 168.45 104.026C166.187 113.076 166.187 122.879 169.204 125.896C172.22 128.158 175.237 144.748 175.991 162.847C178.253 195.274 190.319 285.013 197.86 318.948C200.122 329.506 203.139 351.375 205.401 368.719C208.418 401.146 220.483 453.18 233.303 496.164C236.32 504.459 242.353 530.853 246.877 554.985C258.189 612.297 270.255 610.035 265.73 551.214C264.222 525.575 265.73 500.689 269.501 496.164C273.271 490.885 278.55 455.442 280.058 416.228C283.075 353.637 286.091 318.948 295.895 232.225C297.403 220.159 301.927 190.749 306.452 168.126C311.731 145.502 317.01 111.567 319.272 92.7147C321.534 73.8619 325.305 48.9762 326.813 36.1564C329.075 24.0906 330.584 9.76246 331.338 4.48368C332.846 -6.82798 356.978 5.23779 362.256 18.8118C363.765 24.0906 360.748 44.4516 354.715 64.8126C348.682 84.4195 346.42 104.026 348.682 107.797C350.945 112.322 350.191 115.338 346.42 115.338C340.387 115.338 330.584 187.733 317.764 322.719C315.501 347.604 310.977 378.523 307.206 392.097C303.436 407.179 304.19 418.491 310.223 425.278C316.256 432.065 316.256 432.819 309.469 429.048C303.436 426.032 299.665 428.294 299.665 435.081C299.665 441.114 304.19 447.901 309.469 450.163C316.256 453.934 316.256 455.442 309.469 459.213C299.665 463.737 295.14 722.398 304.944 728.43C310.223 731.447 310.977 774.431 307.96 841.547C307.206 848.334 302.682 854.367 298.157 854.367C288.353 853.613 254.418 828.727 254.418 821.94C254.418 819.678 250.648 808.366 245.369 796.3C240.844 784.989 235.566 768.398 234.057 760.103C232.549 752.562 228.779 743.513 225.762 741.25C222.746 738.988 219.729 730.693 218.975 722.398C217.467 707.315 203.893 650.757 195.598 628.134C193.335 622.101 191.073 614.56 190.319 611.543C188.811 607.773 187.303 603.248 186.548 600.232C185.794 596.461 185.794 588.166 186.548 579.871C187.303 572.329 185.04 567.805 181.27 570.067C178.253 572.329 174.483 564.788 173.729 554.231C166.942 476.557 157.138 402.654 151.105 386.818C143.564 365.703 133.761 419.245 138.285 456.196C141.302 477.311 139.794 496.164 135.269 501.443C126.22 512.001 120.941 602.494 128.482 610.035C130.744 613.051 129.99 621.347 125.465 629.642C121.695 637.183 120.187 646.986 122.449 651.511C125.465 655.282 123.957 662.823 120.187 668.102C115.662 673.38 111.137 694.495 108.875 714.856C103.596 763.874 82.4811 867.187 71.9235 894.335C62.1201 919.221 47.0378 920.729 34.2179 898.105V898.105Z" fill="#D9B5A1"/>
<path d="M322.288 788.759C322.288 781.218 342.649 751.054 360.748 731.447C370.552 720.889 372.06 711.84 367.535 693.741C358.486 659.052 354.715 552.723 363.01 552.723C366.027 552.723 367.535 545.936 365.273 537.64C363.01 529.345 364.519 520.296 369.043 518.033C372.814 515.771 375.076 506.722 372.814 499.181C366.781 476.557 408.257 398.884 430.88 388.326C442.192 383.047 454.258 379.277 457.274 379.277C477.635 379.277 489.701 480.328 474.619 517.279C469.34 529.345 467.078 541.411 469.34 545.181C471.602 548.952 470.094 553.477 465.57 556.493C461.799 558.755 458.028 567.051 458.028 574.592C458.028 582.133 448.225 608.527 435.405 632.658C423.339 656.79 412.782 683.938 412.782 692.987C412.782 708.824 433.143 756.333 439.93 756.333C442.192 756.333 457.274 726.922 474.619 691.479C495.734 646.232 505.537 613.806 507.8 584.395C509.308 561.018 510.816 541.411 510.816 541.411C511.57 541.411 513.079 533.116 513.833 522.558C521.374 459.967 528.161 419.245 534.194 408.687C537.21 401.9 538.718 394.359 536.456 392.097C534.194 389.834 539.472 386.064 548.522 383.047C565.112 377.769 581.703 390.589 574.162 402.654C572.653 405.671 574.162 416.983 578.686 427.54C582.457 438.098 583.211 447.147 579.44 447.147C576.424 447.147 574.162 454.688 574.162 464.491C574.916 473.541 573.407 484.853 570.391 488.623C565.112 496.918 553.801 708.824 559.079 702.791C565.866 696.004 594.523 601.74 599.047 573.084C601.31 555.739 605.834 536.132 609.605 529.345C612.621 522.558 617.146 507.476 619.408 495.41C621.671 483.344 632.982 444.13 643.54 407.933C661.638 349.112 665.409 343.08 677.475 349.867C685.016 353.637 691.803 364.949 691.803 373.998C692.557 383.047 693.311 418.491 694.065 453.18C694.065 487.115 697.082 515.017 700.098 515.017C705.377 515.017 723.476 460.721 732.525 416.982C746.099 356.654 767.214 373.998 758.919 438.098C750.624 494.656 752.886 613.051 761.935 613.051C765.706 613.051 767.214 607.773 764.952 601.74C761.935 595.707 763.443 588.92 767.214 586.658C770.985 584.395 774.001 576.854 774.001 569.313C774.001 562.526 779.28 534.624 786.067 507.476C792.854 480.328 799.641 450.917 799.641 441.868C800.395 433.573 804.165 427.54 807.936 430.556C811.707 432.819 813.215 429.048 810.198 422.261C807.936 414.72 808.69 409.441 812.461 409.441C816.985 409.441 820.002 398.884 820.002 386.064C820.002 370.982 823.018 364.195 829.805 366.457C836.592 368.719 838.1 392.851 836.592 461.475C835.084 525.575 836.592 552.723 841.871 548.952C846.396 546.69 850.166 549.706 850.166 555.739C850.166 562.526 845.642 567.805 841.117 567.805C835.084 567.805 834.33 570.067 838.855 573.838C843.379 576.854 846.396 600.232 847.15 626.625C848.658 711.086 871.281 698.266 877.314 610.035C879.577 577.608 886.364 537.64 892.397 521.05C897.675 504.459 900.692 487.869 898.429 484.098C896.167 480.328 896.921 477.311 900.692 477.311C906.725 477.311 925.577 441.868 925.577 430.556C925.577 423.769 961.775 387.572 970.07 386.064C1007.78 377.769 1042.46 393.605 1025.12 410.95C1021.35 414.72 1019.84 431.311 1021.35 447.901C1023.61 463.737 1022.1 481.082 1018.33 486.361C1007.78 500.689 1006.27 559.51 1016.07 572.329C1023.61 580.625 1023.61 582.887 1016.07 582.887C1009.28 582.887 1008.53 585.149 1015.32 592.69C1019.84 598.723 1021.35 604.756 1019.09 607.773C1016.82 610.035 1016.82 622.855 1019.84 636.429C1024.37 656.79 1026.63 658.298 1032.66 648.495C1036.43 640.954 1037.19 631.904 1034.17 627.379C1031.91 622.855 1033.42 616.822 1037.94 613.806C1042.46 610.789 1047.74 597.969 1050.01 585.903C1051.51 573.838 1057.55 547.444 1064.33 526.329C1070.37 505.968 1075.65 469.77 1075.65 447.147C1075.65 396.621 1078.66 381.539 1089.22 370.982C1101.29 358.916 1113.35 368.719 1108.83 386.818C1106.56 395.113 1108.07 401.9 1111.84 401.9C1115.61 401.9 1117.88 450.918 1116.37 518.788C1114.11 600.232 1115.61 635.675 1121.65 635.675C1126.17 635.675 1127.68 632.658 1125.42 628.134C1123.15 624.363 1126.17 613.051 1132.96 602.494C1139.74 592.69 1144.27 581.379 1142.76 578.362C1142.01 574.592 1145.02 564.788 1149.55 556.493C1154.07 548.198 1163.12 515.771 1169.91 484.853C1188.01 398.884 1193.29 383.047 1205.35 383.047C1214.4 383.047 1215.16 403.408 1212.89 505.214C1210.63 628.888 1214.4 680.921 1227.22 680.921C1230.99 680.921 1236.27 668.856 1239.29 654.528C1241.55 639.445 1248.34 628.134 1254.37 628.134C1267.94 628.134 1267.94 629.642 1246.83 696.758C1228.73 754.07 1212.89 786.497 1203.84 786.497C1194.04 786.497 1171.42 729.939 1172.93 709.578C1173.68 698.266 1171.42 687.708 1167.65 684.692C1163.12 682.43 1161.61 675.643 1163.88 670.364C1166.14 665.085 1162.37 658.298 1156.34 656.036C1149.55 653.019 1143.52 655.282 1142.76 660.56C1142.01 670.364 1139.74 681.676 1136.73 690.725C1135.97 693.741 1134.47 698.266 1132.96 702.037C1132.2 705.053 1129.19 717.873 1125.42 729.939C1122.4 742.759 1114.11 760.103 1108.07 769.907L1096.76 787.251L1085.45 770.661C1073.38 753.316 1060.56 614.56 1070.37 608.527C1074.14 606.264 1076.4 598.723 1076.4 591.936C1076.4 564.034 1060.56 597.969 1050.76 647.741C1037.94 711.84 1016.82 771.415 1007.78 771.415C993.447 771.415 981.382 753.316 984.398 735.972C989.677 708.824 972.332 715.61 956.496 748.037C932.364 794.792 916.528 791.776 890.888 733.709L882.593 714.856L868.265 743.513C859.97 760.103 850.166 771.415 843.379 769.907C830.559 767.644 795.116 682.43 801.149 667.347C802.657 662.069 802.657 641.708 799.641 622.101C795.116 588.166 794.362 587.412 788.329 609.281C781.542 635.675 770.985 704.299 767.968 745.021C766.46 767.644 755.902 779.71 743.082 775.185C727.246 769.152 721.213 748.037 716.689 684.692C715.18 656.036 711.41 630.396 709.902 628.134C703.115 622.101 691.803 646.232 691.803 667.347C691.803 678.659 688.786 689.217 685.016 691.479C681.999 693.741 679.737 707.315 680.491 722.398C681.245 736.726 678.983 748.791 675.967 748.791C672.95 748.791 668.425 757.087 666.163 767.644C663.147 778.202 656.36 786.497 651.081 786.497C645.048 786.497 635.245 788.005 629.212 790.268C617.146 795.546 617.146 778.202 629.966 747.283C634.49 736.726 638.261 720.889 637.507 713.348C637.507 705.807 639.015 683.184 641.277 662.069C651.835 567.805 654.851 477.311 648.064 477.311C642.032 477.311 620.916 567.805 619.408 601.74C619.408 610.035 617.146 622.101 614.129 628.134C598.293 665.839 579.44 721.643 582.457 724.66C583.965 726.168 582.457 731.447 577.932 736.726C574.162 741.25 564.358 754.07 556.063 765.382C547.014 776.694 535.702 784.235 530.423 781.972C518.357 777.448 500.259 714.102 507.046 702.791C510.062 699.02 508.554 696.004 504.029 696.004C500.259 696.004 492.718 708.069 487.439 722.398C482.16 736.726 475.373 748.791 472.357 748.791C469.34 748.791 465.57 755.578 463.307 763.119C461.799 770.661 451.996 781.218 442.946 786.497C431.635 792.53 427.864 792.53 430.88 787.251C433.897 782.726 430.88 778.956 422.585 778.956C415.044 778.956 402.224 768.398 394.683 755.578L381.109 732.955L363.01 757.841C344.158 782.726 322.288 799.317 322.288 788.759V788.759ZM967.808 683.938C970.824 673.38 970.824 641.708 968.562 613.806C965.545 573.084 974.595 474.295 986.66 424.524C988.169 418.491 985.152 413.212 979.119 413.212C962.529 413.212 940.66 456.196 938.397 491.639C937.643 508.23 934.627 522.558 931.61 522.558C924.069 522.558 928.594 682.43 936.135 694.495C945.938 710.332 962.529 704.299 967.808 683.938V683.938ZM1166.89 613.051C1166.89 600.986 1165.38 590.428 1163.88 590.428C1162.37 590.428 1159.35 600.986 1157.84 613.051C1155.58 625.871 1157.09 635.675 1160.86 635.675C1163.88 635.675 1166.89 625.871 1166.89 613.051ZM416.552 620.593C414.29 616.822 415.798 613.051 420.323 613.051C425.602 613.051 427.11 607.019 424.093 597.969C421.831 589.674 422.585 582.887 426.356 582.887C436.159 582.887 453.504 518.033 446.717 507.476C443.7 502.197 444.454 496.164 448.979 493.148C454.258 490.131 455.012 475.049 451.996 450.917C446.717 415.474 445.209 413.966 436.913 430.556C425.602 450.917 405.241 559.51 405.241 600.232C405.241 615.314 409.011 628.134 413.536 628.134C417.306 628.134 418.815 625.117 416.552 620.593V620.593ZM2001.69 775.939C1989.63 757.841 1976.05 711.086 1972.28 673.38C1970.78 659.052 1964.74 666.593 1942.12 711.086C1927.04 742.004 1907.43 772.169 1899.13 776.694C1885.56 784.989 1881.79 784.235 1870.48 766.89C1844.08 726.168 1849.36 638.691 1884.81 535.378C1900.64 490.131 1899.13 476.557 1881.04 491.639C1875 496.164 1865.2 498.426 1858.41 495.41C1845.59 490.885 1839.56 508.984 1833.53 579.871C1831.26 604.002 1827.49 634.921 1825.23 646.986C1823.72 659.806 1820.71 680.167 1819.95 692.233C1816.94 726.168 1795.82 769.152 1779.23 778.202C1765.66 785.743 1761.89 782.726 1746.8 751.054L1730.21 716.365L1703.07 748.037C1687.98 765.382 1673.66 778.956 1670.64 778.956C1654.8 778.956 1624.64 685.446 1626.15 639.445C1626.9 601.74 1648.77 494.656 1661.59 462.983C1667.62 448.655 1670.64 435.835 1669.13 434.327C1667.62 432.065 1670.64 425.278 1675.92 418.491C1681.95 410.95 1693.26 397.376 1701.56 386.818L1715.89 367.965L1736.25 386.818C1747.56 397.376 1758.87 404.917 1761.13 404.163C1764.15 402.654 1765.66 418.491 1764.15 438.098C1760.38 516.525 1764.15 646.232 1771.69 665.085L1779.23 684.692L1786.02 666.593C1789.79 656.036 1792.05 642.462 1791.3 636.429C1790.54 629.642 1792.05 620.593 1795.07 615.314C1798.08 610.789 1804.12 579.871 1807.89 547.444C1812.41 515.017 1818.45 478.066 1822.22 465.246C1825.23 453.18 1827.49 428.294 1826.74 410.95C1825.99 393.605 1827.49 381.539 1830.51 383.047C1833.53 385.31 1838.81 377.769 1841.07 366.457L1846.35 346.85L1857.66 363.441C1865.2 373.244 1867.46 387.572 1865.2 398.884C1859.17 422.261 1864.45 421.507 1896.87 396.621C1917.23 381.539 1926.28 378.523 1935.33 384.556C1950.41 394.359 1949.66 414.72 1928.55 484.853C1919.5 515.771 1911.2 560.264 1909.69 583.641C1908.94 607.019 1905.92 628.888 1903.66 633.412C1896.87 644.724 1899.89 688.463 1908.18 688.463C1925.53 688.463 1975.3 598.723 1973.04 573.084C1972.28 564.034 1973.79 550.46 1976.81 543.673C1979.82 536.886 1980.58 527.837 1978.32 523.312C1975.3 519.542 1976.81 514.263 1981.33 511.246C1985.1 508.984 1988.87 499.935 1988.87 491.639C1988.87 475.803 2022.06 405.671 2040.15 385.31C2057.5 364.949 2081.63 368.719 2095.2 392.851C2118.58 434.327 2090.68 544.427 2063.53 517.279C2049.96 503.705 2048.45 484.853 2061.27 484.853C2067.3 484.853 2071.83 480.328 2070.32 475.803C2069.56 470.524 2072.58 458.459 2077.86 449.409C2087.66 432.065 2081.63 406.425 2066.55 404.163C2062.02 402.654 2049.96 421.507 2040.91 445.639C2027.33 481.082 2024.32 504.459 2023.56 577.608C2023.56 657.544 2025.07 667.347 2039.4 681.676L2054.48 697.512L2077.86 656.79C2117.07 588.92 2132.91 544.427 2143.47 473.541C2154.78 395.867 2166.84 364.195 2184.94 364.195C2211.34 364.195 2212.85 377.769 2198.52 464.491C2190.98 510.492 2185.7 555.739 2186.45 564.034C2187.21 572.329 2185.7 583.641 2181.93 589.674C2178.16 594.953 2178.91 601.74 2182.68 604.756C2187.21 607.018 2189.47 628.134 2188.71 650.757C2186.45 691.479 2186.45 691.479 2198.52 674.134C2218.12 644.724 2237.73 582.133 2233.21 562.526C2230.19 552.723 2232.45 539.903 2236.98 534.624C2243.76 527.083 2243.76 522.558 2237.73 518.788C2231.7 515.017 2231.7 510.492 2238.48 502.951C2243.01 496.918 2245.27 485.607 2243.01 477.311C2240.75 469.016 2242.26 459.967 2246.78 457.705C2250.55 454.688 2252.81 443.376 2250.55 432.065C2241.5 390.589 2291.27 357.408 2301.08 398.13C2304.09 408.687 2303.34 423.015 2299.57 430.556C2285.24 458.459 2283.73 699.774 2298.06 683.184C2301.08 679.413 2313.9 643.216 2327.47 601.74C2341.04 560.264 2353.86 521.05 2356.88 515.017C2359.14 508.984 2361.41 500.689 2362.16 496.164C2362.91 492.394 2367.44 480.328 2371.96 469.77C2376.49 459.213 2384.78 435.835 2390.06 416.982C2396.09 395.113 2404.39 382.293 2413.44 380.785C2424.75 378.523 2426.26 381.539 2423.24 403.408C2415.7 447.901 2411.93 513.509 2416.46 517.279C2418.72 519.542 2421.73 539.903 2423.24 561.772C2426.26 599.477 2437.57 616.822 2460.19 616.822C2464.72 616.822 2476.03 622.855 2485.83 629.642C2497.9 638.691 2502.42 646.232 2498.65 656.036C2495.64 663.577 2491.11 665.839 2488.1 662.069C2485.08 657.544 2472.26 650.757 2458.69 646.232L2434.55 637.183L2438.32 661.315C2440.59 674.134 2443.6 690.725 2445.11 698.266C2449.64 721.643 2417.96 771.415 2399.11 771.415C2368.95 771.415 2356.88 762.365 2341.8 726.922L2327.47 692.233L2308.62 729.939C2298.06 751.054 2286.75 770.661 2282.98 774.431C2273.17 784.235 2245.27 751.054 2245.27 729.939C2245.27 719.381 2242.26 711.086 2238.48 711.086C2233.96 711.086 2233.21 699.02 2235.47 684.692C2240.75 653.019 2225.67 647.741 2218.12 679.413C2206.81 726.168 2174.39 771.415 2151.76 771.415C2141.96 771.415 2130.65 710.332 2130.65 659.806C2131.4 628.888 2130.65 604.756 2129.14 606.264C2127.63 607.773 2115.56 636.429 2102.74 669.61C2080.12 724.66 2034.12 794.038 2019.04 794.038C2016.02 794.038 2007.73 785.743 2001.69 775.939V775.939ZM2388.55 692.233C2388.55 677.905 2385.54 665.839 2381.01 665.839C2377.24 665.839 2373.47 660.56 2373.47 653.773C2373.47 643.216 2371.21 643.216 2362.16 650.757C2348.59 662.069 2347.08 692.987 2360.65 707.315C2377.24 726.168 2388.55 720.135 2388.55 692.233ZM1709.85 696.004C1716.64 683.938 1725.69 602.494 1726.44 552.723C1726.44 546.69 1729.46 518.033 1733.98 490.131C1745.3 410.95 1730.97 376.26 1706.08 424.524C1698.54 438.098 1696.28 454.688 1699.3 466.754C1703.07 482.59 1702.31 485.607 1694.77 481.082C1687.23 476.557 1685.72 478.82 1688.74 490.885C1691.75 499.935 1691 507.476 1687.23 507.476C1684.21 507.476 1681.2 524.82 1680.44 545.936C1680.44 567.051 1678.18 586.658 1675.92 590.428C1673.66 594.199 1675.92 599.477 1680.44 602.494C1685.72 605.51 1687.23 620.592 1684.21 646.232C1676.67 702.791 1691 730.693 1709.85 696.004V696.004ZM2358.39 627.379C2358.39 623.609 2361.41 621.347 2365.18 624.363C2374.98 630.396 2381.77 616.822 2376.49 602.494C2371.96 590.428 2350.85 585.149 2350.85 596.461C2350.85 599.477 2348.59 609.281 2346.32 619.084C2343.31 628.888 2344.81 635.675 2350.09 635.675C2354.62 635.675 2358.39 631.904 2358.39 627.379ZM2376.49 566.297C2378.75 556.493 2381.01 543.673 2381.01 538.394C2381.01 521.05 2368.95 538.394 2362.91 562.526C2356.88 586.658 2369.7 590.428 2376.49 566.297V566.297ZM552.292 327.243C544.751 312.161 543.243 303.112 549.276 300.095C553.801 297.079 555.309 290.292 553.046 285.013C549.276 274.455 562.096 258.619 574.916 258.619C586.227 258.619 604.326 292.554 599.801 305.374C597.539 310.653 595.277 318.194 595.277 321.21C594.523 327.997 574.162 349.112 568.129 349.112C565.866 349.112 559.079 339.309 552.292 327.243V327.243Z" fill="#D9B5A1"/>
</svg>
