<svg width="2280" height="879" viewBox="0 0 2280 879" fill="none" xmlns="http://www.w3.org/2000/svg">
<path fill-rule="evenodd" clip-rule="evenodd" d="M0 872.765C4.00766 871.779 7.50949 871.014 11.0113 871.014C14.5132 871.014 18.5079 871.779 22.0097 872.765C20.2588 805.763 19.753 754.74 19.753 719.994C19.753 703.484 20.0124 686.48 20.2588 669.477L98.0255 767.736C131.786 810.017 159.541 846.748 180.293 877.771H184.547C184.287 850.509 183.795 821.262 183.795 790.498C183.795 735.727 184.547 675.715 186.544 609.959C183.289 610.698 179.787 611.45 176.544 611.45C173.302 611.45 169.787 610.685 166.285 609.959C167.53 644.458 168.776 699.23 168.776 773.469C168.776 783.222 168.529 794.246 168.023 807.488C120.515 749.98 67.2482 683.718 10.4925 604.939H4.25408V645.703C4.25408 724.975 2.99602 800.744 0 872.765ZM384.566 878.251C455.835 878.251 502.838 823.26 502.838 741.991C502.838 658.479 457.833 605.199 384.566 605.199C312.805 605.199 266.049 658.725 266.049 741.991C266.049 825.75 311.054 878.251 384.566 878.251Z" fill="#D9B5A1"/>
<path fill-rule="evenodd" clip-rule="evenodd" d="M384.566 863.52C329.056 863.52 298.058 820.758 298.058 742.992C298.058 663.733 329.562 619.48 384.566 619.48C440.829 619.48 470.828 661.982 470.828 741.5C470.841 820.499 439.584 863.52 384.566 863.52Z" fill="#EFE8E3"/>
<path fill-rule="evenodd" clip-rule="evenodd" d="M826.395 872.766C839.39 872.507 847.898 872.027 852.152 872.027C868.157 872.027 883.915 873.778 898.908 873.778C982.174 873.778 1025.44 824 1025.44 733.497C1025.44 685.496 1010.68 648.48 984.431 627.236C965.43 611.983 942.928 608.715 912.669 608.715C886.665 608.715 865.913 610.712 850.415 610.712C841.413 610.712 833.411 610.232 826.407 609.973C827.666 649.232 827.666 692.979 827.666 741.499C827.653 787.75 827.653 831.743 826.395 872.766Z" fill="#D9B5A1"/>
<path fill-rule="evenodd" clip-rule="evenodd" d="M855.148 856.268C854.349 814.679 853.934 773.083 853.903 731.486C853.903 696.986 854.396 661.981 854.902 626.21C872.904 624.459 889.401 624.213 903.409 624.213C967.168 624.213 994.418 657.727 994.418 740.733C994.418 819.992 959.659 858.265 888.909 858.265C878.65 858.265 867.405 857.513 855.148 856.268V856.268Z" fill="#EFE8E3"/>
<path fill-rule="evenodd" clip-rule="evenodd" d="M1100.2 857.513C1114.45 871.015 1132.95 877.772 1153.96 877.772C1200.47 877.772 1230.23 843.998 1230.23 794.739C1230.23 761.251 1217.24 742.731 1187.98 727.738L1161.96 714.236C1139.71 702.732 1129.46 689.996 1129.46 667.221C1129.46 637.961 1144.22 619.466 1167.97 619.466C1186.23 619.466 1200.97 629.466 1212.22 649.232C1214.98 638.467 1217.72 628.454 1221.21 619.466C1205.47 609.972 1190.2 605.199 1172.47 605.199C1131.95 605.199 1104.7 636.456 1104.7 679.724C1104.7 710.734 1118.45 729.981 1147.46 744.222L1173.45 757.244C1195.72 768.242 1205.95 780.499 1205.95 805.751C1205.95 840.756 1187.21 862.493 1159.95 862.493C1136.45 862.493 1116.7 845.749 1106.94 816.49C1105.92 830.338 1103.66 844.067 1100.2 857.513V857.513ZM1352.25 872.765C1357.49 872.026 1362.75 872.026 1367.51 872.026C1372.75 872.026 1377.51 872.026 1381.99 872.765C1381.03 819.928 1380.53 767.082 1380.5 714.236C1380.5 682.214 1380.76 653.46 1381.99 627.987H1391.27C1413.25 627.987 1432.25 629.232 1448.27 632.721C1447.58 628.925 1447.26 625.074 1447.28 621.217C1447.28 617.209 1447.54 613.461 1448.27 609.972C1418.28 610.711 1390.01 611.217 1362.75 611.217C1335.74 611.217 1310.49 610.711 1285.99 609.972C1286.25 613.72 1286.76 617.974 1286.76 621.982C1286.76 625.225 1286.25 629.232 1285.99 632.721C1299.75 629.479 1319.76 627.987 1345.02 627.987H1353.76V692.226C1353.75 748.995 1352.98 809.252 1352.25 872.765V872.765ZM591.11 872.765C596.363 871.78 601.369 871.015 606.116 871.015C611.356 871.015 616.116 871.78 621.109 872.765C620.111 851.262 619.358 832.001 619.358 814.752V664.484C619.358 652.98 619.618 639.478 621.356 625.225C631.602 624.459 640.356 624.213 646.361 624.213C683.377 624.213 701.626 641.463 701.626 676.248C701.626 714.249 677.865 732.731 630.11 732.731H627.114L673.364 805.764C686.114 825.75 699.369 848.266 713.623 872.765C719.733 871.671 725.923 871.085 732.13 871.015C738.628 871.015 744.88 871.78 751.377 872.765C718.629 824.258 689.369 781.238 665.362 742.744C707.125 733.496 729.627 707.258 729.627 671.488C729.627 629.492 705.374 609.22 657.36 609.22C636.608 609.22 619.605 610.711 605.857 610.711C602.355 610.711 597.102 610.231 591.097 609.972C592.602 644.225 593.354 687.998 593.354 741.499C593.354 791.238 593.108 834.764 591.11 872.765V872.765ZM1523.04 872.765C1527.97 871.71 1532.99 871.124 1538.03 871.015C1543.27 871.015 1548.03 871.78 1552.78 872.765C1551.84 853.441 1551.35 834.098 1551.29 814.752V664.484C1551.29 652.98 1551.55 639.478 1553.04 625.225C1561.44 624.586 1569.86 624.248 1578.29 624.213C1615.05 624.213 1633.57 641.463 1633.57 676.248C1633.57 714.249 1609.81 732.731 1561.81 732.731H1559.04L1605.29 805.764C1618.06 825.75 1631.31 848.266 1645.32 872.765C1651.54 871.78 1657.55 871.015 1664.06 871.015C1670.31 871.015 1676.8 871.78 1683.31 872.765C1650.56 824.258 1621.3 781.238 1597.03 742.744C1638.81 733.496 1661.3 707.258 1661.3 671.488C1661.3 629.492 1637.3 609.22 1589.06 609.22C1568.54 609.22 1551.53 610.711 1537.79 610.711C1534.28 610.711 1529.04 610.231 1523.04 609.972C1524.53 644.225 1525.27 687.998 1525.27 741.499C1525.26 791.238 1524.78 834.764 1523.04 872.765V872.765ZM1843.33 878.252C1914.58 878.252 1961.6 823.26 1961.6 741.991C1961.6 658.479 1916.58 605.199 1843.33 605.199C1771.57 605.199 1724.8 658.725 1724.8 741.991C1724.8 825.75 1769.82 878.252 1843.33 878.252Z" fill="#D9B5A1"/>
<path fill-rule="evenodd" clip-rule="evenodd" d="M1843.33 863.52C1787.83 863.52 1756.82 820.758 1756.82 742.992C1756.82 663.733 1788.34 619.48 1843.33 619.48C1899.59 619.48 1929.86 661.982 1929.86 741.5C1929.86 820.499 1898.35 863.52 1843.33 863.52Z" fill="#EFE8E3"/>
<path fill-rule="evenodd" clip-rule="evenodd" d="M2025.86 872.766C2030.38 871.78 2034.61 871.015 2038.86 871.015C2042.87 871.015 2046.86 871.78 2050.61 872.766C2051.12 837.021 2055.63 773.262 2066.37 681.229L2116.63 792.003C2130.39 822.508 2141.37 848.513 2147.13 872.507H2151.64C2160.63 842.002 2186.14 776.245 2233.93 680.723C2237.93 705.469 2244.42 769.254 2250.41 872.766C2255.43 871.78 2260.16 871.015 2264.92 871.015C2269.66 871.015 2274.68 871.78 2279.41 872.766C2270.4 783.549 2261.89 694.281 2253.9 604.966H2249.89C2217.39 677.999 2185.87 747.763 2154.64 814C2124.63 747.984 2095.11 678.479 2064.36 604.966H2059.12C2045.63 734.249 2035.37 824 2025.86 872.766V872.766ZM993.925 54.8668C1095.19 -20.6432 1196.2 -15.8962 1297.22 54.8668V329.164C1196.2 399.927 1095.19 404.428 993.925 329.164V54.8668Z" fill="#D9B5A1"/>
<path fill-rule="evenodd" clip-rule="evenodd" d="M1284.75 61.364V322.406C1192.47 384.921 1097.71 388.422 1006.44 322.666V61.1176C1097.7 -4.39271 1192.45 -1.1503 1284.75 61.364V61.364Z" fill="#EFE8E3"/>
<path fill-rule="evenodd" clip-rule="evenodd" d="M1265.72 71.6245V312.162C1184.71 363.924 1104.96 366.427 1025.44 312.668V71.1187C1105.45 17.359 1185.46 20.6145 1265.72 71.6245Z" fill="#D9B5A1"/>
<path fill-rule="evenodd" clip-rule="evenodd" d="M1071.69 296.156C1074.69 295.157 1077.68 294.651 1080.45 294.651C1083.2 294.651 1086.19 295.157 1089.2 296.156C1087.98 255.74 1087.31 215.309 1087.2 174.875C1087.2 161.633 1087.46 148.132 1087.71 134.877L1149.22 212.643C1175.97 246.404 1197.99 275.404 1214.48 300.163H1217.98C1216.97 229.234 1217.46 158.29 1219.47 87.3814C1216.87 88.1637 1214.18 88.5827 1211.47 88.6265C1208.99 88.6265 1206.23 88.1207 1203.49 87.3814C1204.48 114.877 1205.49 158.391 1205.49 217.403C1205.49 224.913 1205.23 233.901 1204.98 244.16C1167.21 198.649 1124.71 146.134 1079.95 83.3867H1074.96V115.889C1075.05 175.993 1073.96 236.094 1071.69 296.156V296.156Z" fill="#EFE8E3"/>
</svg>
