<svg width="727" height="707" viewBox="0 0 727 707" fill="none" xmlns="http://www.w3.org/2000/svg">
<path d="M373 651C542.551 651 680 513.551 680 344C680 174.449 542.551 37 373 37C203.449 37 66 174.449 66 344C66 513.551 203.449 651 373 651Z" fill="#EFE8E3"/>
<path d="M135.234 77.8763L135.234 77.8764C61.6978 136.096 15.2297 219.467 4.39841 312.624C-6.43284 405.78 19.6576 497.59 77.877 571.126C136.096 644.662 219.467 691.13 312.624 701.961C405.781 712.802 497.601 686.702 571.127 628.483C644.662 570.263 691.13 486.892 701.962 393.735C712.793 300.578 686.692 208.769 628.483 135.233L626.915 136.474L628.483 135.233C570.264 61.6972 486.893 15.2291 393.736 4.39785C300.579 -6.43342 208.769 19.6672 135.234 77.8763ZM139.616 83.4026C211.681 26.3518 301.641 0.782373 392.934 11.4011C484.227 22.0198 565.916 67.5517 622.967 139.616C680.018 211.68 705.587 301.64 694.968 392.933C684.35 484.227 638.818 565.916 566.754 622.966C494.69 680.017 404.729 705.587 313.436 694.968C222.143 684.349 140.454 638.817 83.4031 566.753C26.3524 494.689 0.782927 404.729 11.4016 313.436C22.0204 222.142 67.5523 140.453 139.616 83.4026Z" fill="#EFE8E3" stroke="#EFE8E3" stroke-width="4"/>
<path d="M43.8322 304.769L43.8321 304.769C33.2962 395.424 58.6891 484.761 115.336 556.323C171.983 627.885 253.114 673.096 343.769 683.642L343.942 682.152L343.769 683.642C434.424 694.178 523.761 668.785 595.323 612.138C666.885 555.491 712.096 474.36 722.642 383.705L721.152 383.532L722.642 383.705C733.178 293.05 707.785 203.713 651.138 132.151C594.491 60.5891 513.36 15.3781 422.705 4.83216L422.705 4.83215C332.05 -5.70377 242.713 19.6891 171.151 76.336C99.5891 132.983 54.3781 214.114 43.8322 304.769ZM174.853 81.0082C245.171 25.3451 332.944 0.398016 422.019 10.7521C511.094 21.1161 590.803 65.5351 646.466 135.843C702.129 206.161 727.076 293.934 716.722 383.009C706.368 472.084 661.939 551.793 591.631 607.456C521.313 663.119 433.54 688.066 344.465 677.712C255.391 667.358 175.681 622.929 120.018 552.621C64.3551 482.303 39.408 394.53 49.7621 305.455C60.1161 216.381 104.545 136.671 174.853 81.0082Z" fill="#DFD9D7" stroke="#DFD9D7" stroke-width="3"/>
<path d="M503.269 172.945L545.306 172C551.289 172 554.281 174.204 554.281 178.613C554.281 182.076 550.817 185.383 543.889 188.532C541.055 189.791 537.749 192.468 533.97 196.561C530.192 200.655 526.885 206.008 524.051 212.621L418.721 452.567C411.163 469.571 404.708 484.686 399.355 497.911C394.002 510.821 390.853 518.064 389.908 519.638C388.964 521.213 387.704 522 386.13 522C380.462 522 373.377 511.451 364.874 490.354C356.687 469.256 343.462 439.027 325.198 399.665C307.25 360.304 293.395 329.602 283.633 307.56C273.871 285.518 266.786 269.301 262.378 258.91C258.284 248.518 254.348 239.229 250.57 231.042C244.901 217.502 239.706 208.212 234.982 203.174C230.259 197.821 224.906 193.885 218.923 191.366C213.255 188.847 208.689 187.587 205.225 187.587C196.408 188.217 192 185.383 192 179.085C192 174.677 196.408 172.472 205.225 172.472L257.182 174.362L287.884 173.417C295.126 173.417 299.535 173.732 301.109 174.362C302.684 174.991 303.471 176.408 303.471 178.613C303.471 180.502 301.897 182.234 298.748 183.808C288.986 188.847 284.105 194.042 284.105 199.395C284.105 204.434 284.578 209.157 285.522 213.565C286.782 217.659 289.301 224.114 293.08 232.931C296.858 241.748 300.637 250.565 304.416 259.382C308.509 268.199 314.964 282.526 323.781 302.364C332.913 321.888 341.73 341.253 350.232 360.462C376.683 421.235 392.427 451.622 397.466 451.622C399.04 451.622 408.014 432.571 424.389 394.47C441.078 356.368 457.452 316.534 473.511 274.969C489.571 233.404 497.601 209.472 497.601 203.174C497.601 196.876 495.711 192.468 491.933 189.949C488.469 187.115 484.69 185.383 480.597 184.753C469.26 183.493 463.592 180.974 463.592 177.196C463.592 174.991 464.065 173.732 465.009 173.417C466.269 172.787 469.103 172.472 473.511 172.472L503.269 172.945Z" fill="white"/>
</svg>
