<svg width="2166" height="774" viewBox="0 0 2166 774" fill="none" xmlns="http://www.w3.org/2000/svg">
<path fill-rule="evenodd" clip-rule="evenodd" d="M38.3905 7.66518V90.2047H266.788L0 508.622H429.922V416.498H191.927L452.956 7.66518H38.3905ZM727.422 197.685L888.649 508.622H1011.5L727.422 0L445.291 508.622H568.115L727.422 197.685Z" fill="#D9B5A1"/>
<path fill-rule="evenodd" clip-rule="evenodd" d="M811.881 358.913H644.896L727.422 464.474L811.881 358.913ZM1034.52 7.66602V508.623H1370.41V420.325H1140.09V7.66602H1034.52ZM1738.93 7.66602H1406.9V508.623H1742.76V420.325H1512.44V97.8837H1738.93V7.66602Z" fill="#D9B5A1"/>
<path fill-rule="evenodd" clip-rule="evenodd" d="M1614.18 341.637V180.423L1512.44 261.03L1614.18 341.637ZM1786.91 420.325V508.636H2036.42C2120.88 508.636 2159.26 462.581 2163.11 397.304C2166.94 347.409 2138.16 320.549 2130.48 312.858L1944.3 155.482C1919.34 140.126 1921.28 101.736 1946.22 101.736H2138.16V7.66602H1917.41C1863.65 7.66602 1800.33 57.5736 1806.1 128.596C1809.93 155.469 1808 174.665 1850.23 213.042L2028.74 366.591C2046.02 383.867 2051.76 420.325 2005.72 420.325H1786.91ZM2126.64 654.481C2128.56 654.481 2128.56 654.481 2128.56 650.655V631.46C2128.56 629.54 2126.64 627.634 2126.64 627.634H2138.17C2143.92 627.634 2147.77 629.527 2147.77 635.312C2147.77 639.138 2145.85 641.057 2142 642.99L2147.77 650.668C2149.66 652.588 2151.59 654.494 2151.59 654.494V656.414H2149.67C2145.85 656.414 2143.93 654.494 2138.17 642.99H2134.32V650.668C2134.32 654.494 2134.32 654.494 2138.17 654.494V656.414H2126.64V654.481V654.481ZM2138.16 641.057C2141.98 641.057 2143.9 639.138 2143.9 633.379C2143.9 629.527 2140.05 627.634 2138.16 627.634H2134.3V641.057H2138.16ZM2161.19 641.057C2161.19 629.527 2149.66 618.036 2138.17 618.036C2126.64 618.036 2115.12 629.54 2115.12 641.057C2115.12 654.481 2126.65 666.011 2138.17 666.011C2149.66 666.011 2161.19 654.481 2161.19 641.057ZM2138.16 614.184C2153.51 614.184 2165 625.714 2165 641.057C2165 656.401 2153.5 669.863 2138.16 669.863C2122.81 669.863 2111.28 656.414 2111.28 641.057C2111.28 625.701 2122.81 614.184 2138.16 614.184ZM51.8142 767.746C57.5728 767.746 63.3314 765.827 63.3314 754.296V635.312H55.6533C34.5385 635.312 30.6994 639.138 24.9409 658.333L23.0213 666.011H19.1823V625.714H122.837V631.46C122.837 642.99 122.837 656.414 124.743 666.011H118.985L117.065 658.333C113.226 639.138 109.387 635.312 88.2852 635.312H78.6876V754.296C78.6876 765.827 84.4461 767.746 90.2047 767.746V771.572C86.3657 769.679 78.6876 769.679 74.8485 769.679C67.1704 769.679 59.4923 769.679 51.8142 771.572V767.746V767.746ZM140.112 637.205C140.112 629.527 136.273 629.527 128.595 629.527V625.701H166.986V629.527C161.227 629.527 155.469 629.527 155.469 637.205V690.965H236.076V637.205C236.076 629.527 230.33 629.527 224.559 629.527V625.701H262.949V629.527C255.271 629.527 251.419 629.527 251.419 637.205V758.135C251.419 765.814 255.258 767.733 262.949 767.733V771.559C255.271 769.666 249.512 769.666 241.834 769.666C236.076 769.666 230.317 769.666 224.559 771.559V767.733C230.317 767.733 236.076 767.733 236.076 758.135V698.63H155.456V758.135C155.456 767.733 159.295 767.733 166.973 767.733V771.559C161.214 769.666 155.456 769.666 149.697 769.666C142.019 769.666 134.341 769.666 128.582 771.559V767.733C134.341 767.733 140.099 765.814 140.099 758.135V637.205H140.112V637.205ZM284.051 639.138C284.051 631.46 278.292 629.54 272.534 629.54V625.714H378.095C378.095 637.218 378.095 646.816 380.014 656.414H376.175C370.416 644.883 372.336 635.312 355.06 635.312H299.42V690.965H335.891C345.489 690.965 347.408 685.219 349.328 675.609H353.167V713.986H347.408C347.408 704.389 345.502 698.63 335.891 698.63H299.42V760.055H356.993C374.268 760.055 378.108 750.457 381.947 735.101H385.786C383.866 742.779 381.947 761.949 383.866 769.653H272.547V765.801C280.225 765.801 284.064 765.801 284.064 756.203V639.138H284.051V639.138ZM491.347 635.312H508.622C554.691 635.312 577.725 664.092 577.725 702.495C577.725 738.953 550.865 760.068 512.474 760.068H491.36V635.312H491.347V635.312ZM477.91 758.148C477.91 763.894 472.151 765.827 466.393 765.827V769.679H518.207C564.276 769.679 593.055 740.873 593.055 698.643C593.055 658.346 566.182 625.714 514.368 625.714H466.393V629.54C474.071 629.54 477.91 631.46 477.91 639.138V758.148V758.148ZM627.62 758.148C627.62 765.827 631.459 767.746 637.218 767.746V771.572C631.459 769.679 625.7 769.679 619.942 769.679C614.183 769.679 608.425 769.679 600.76 771.572V767.746C606.518 767.746 612.277 765.827 612.277 758.148V637.218C612.277 629.54 608.438 629.54 600.76 629.54V625.714H637.218V629.54C631.459 629.54 627.62 629.54 627.62 637.218V758.148ZM692.871 706.321L717.825 639.138L742.765 706.321H692.871V706.321ZM648.735 771.572C656.413 769.679 662.171 769.679 669.849 769.679C675.595 769.679 679.447 769.679 685.206 771.572V767.746C681.367 767.746 675.595 765.827 675.595 758.148C675.595 752.403 685.206 725.517 689.045 713.999H746.618C748.524 721.677 761.974 752.403 761.974 758.148C761.974 765.827 758.135 765.827 752.376 767.746V771.572C760.054 769.679 765.813 769.679 773.491 769.679C779.249 769.679 785.008 769.679 790.767 771.572V767.746C786.928 767.746 781.169 763.894 777.33 754.296L763.893 719.771L737.033 650.668C733.194 642.99 729.342 631.473 727.435 625.714H696.723V629.54C704.388 629.54 706.307 629.54 706.307 635.312C706.307 639.138 704.388 648.736 698.642 664.092L666.01 744.699C662.171 758.148 656.413 765.827 648.735 767.746V771.572V771.572ZM798.445 767.746C804.203 765.827 809.962 765.827 809.962 752.39C809.962 742.792 813.801 687.113 813.801 641.057C813.801 629.527 808.042 629.527 802.284 629.527V625.701H831.077C836.835 641.057 842.594 656.401 850.272 671.757L884.81 752.39L930.879 625.701H957.752V629.527C951.994 629.527 946.235 631.447 946.235 639.125C946.235 673.676 953.913 754.283 953.913 756.203C953.913 765.801 959.672 767.733 965.43 767.733V771.559C959.672 769.666 953.913 769.666 948.155 769.666C940.477 769.666 934.718 769.666 927.04 771.559V767.733C932.798 767.733 938.557 765.814 938.557 758.135C938.557 729.356 934.718 685.207 932.798 648.723L888.649 771.559H877.132L825.305 648.723C823.386 683.274 821.479 737.034 821.479 756.203C821.479 763.881 823.386 767.733 832.983 767.733V771.559C827.225 769.666 821.479 769.666 813.788 769.666C809.949 769.666 804.19 769.666 798.432 771.559V767.746H798.445V767.746ZM980.787 696.711C980.787 658.333 1003.82 633.379 1038.37 633.379C1072.92 633.379 1095.95 667.931 1095.95 700.563C1095.95 738.94 1069.07 763.894 1040.28 763.894C1005.73 763.894 980.787 729.369 980.787 696.711V696.711ZM967.35 694.817C967.35 737.047 996.143 773.492 1042.21 773.492C1078.68 773.492 1111.3 742.792 1111.3 702.482C1111.3 666.011 1084.43 623.782 1034.53 623.782C999.982 623.782 967.35 654.481 967.35 694.817V694.817ZM1136.24 641.057C1136.24 631.46 1132.42 629.527 1124.71 629.527V625.701H1153.52C1182.32 664.079 1209.17 704.376 1236.04 746.605V641.044C1236.04 631.447 1230.3 629.514 1224.54 629.514V625.688H1259.07V629.514C1251.39 629.514 1247.56 631.434 1247.56 641.044V771.546H1237.96C1209.16 729.343 1178.46 683.261 1147.76 641.044V756.203C1147.76 763.881 1153.5 767.733 1163.12 767.733V771.559C1157.34 769.666 1149.67 769.666 1143.92 769.666C1136.24 769.666 1130.5 769.666 1124.73 771.559V767.733C1132.43 767.733 1136.26 765.814 1136.26 756.203V641.057H1136.24V641.057ZM1305.16 635.312H1320.52C1368.49 635.312 1389.62 664.092 1389.62 702.495C1389.62 738.953 1362.75 760.068 1324.34 760.068H1305.16V635.312ZM1289.8 758.148C1289.8 763.894 1285.95 765.827 1278.27 765.827V769.679H1330.1C1378.08 769.679 1404.95 740.873 1404.95 698.643C1404.95 658.346 1378.08 625.714 1328.17 625.714H1278.26V629.54C1285.94 629.54 1289.79 631.46 1289.79 639.138V758.148H1289.8V758.148ZM1487.5 725.517C1491.33 752.39 1500.93 763.894 1527.8 763.894C1550.82 763.894 1570.03 754.296 1570.03 729.369C1570.03 706.321 1550.83 706.321 1529.73 700.563C1499.01 694.817 1479.82 687.113 1479.82 662.185C1479.82 635.312 1508.6 623.782 1535.48 623.782C1548.93 623.782 1562.35 625.701 1575.77 627.634C1575.77 639.138 1575.77 650.655 1577.69 660.266H1571.95C1568.1 639.138 1558.5 631.46 1535.48 631.46C1516.28 631.46 1495.18 641.057 1495.18 660.266C1495.18 679.448 1510.54 683.287 1533.56 687.113C1560.43 690.965 1585.39 698.643 1585.39 727.436C1585.39 758.136 1560.43 773.492 1525.88 773.492C1512.46 773.492 1495.18 769.666 1483.65 763.894C1483.65 754.296 1481.76 735.114 1481.76 725.517H1487.5V725.517ZM1631.45 767.746C1637.2 767.746 1642.96 765.827 1644.88 754.296V635.312H1635.28C1614.18 635.312 1610.33 639.138 1606.5 658.333L1604.58 666.011H1598.83C1598.83 656.414 1600.73 642.99 1600.73 631.46V625.714H1702.46V631.46C1702.46 642.99 1704.38 656.414 1704.38 666.011H1700.53L1696.7 658.333C1692.85 639.138 1689.03 635.312 1667.9 635.312H1658.3V754.296C1658.3 765.827 1664.07 767.746 1671.75 767.746V771.572C1665.98 769.679 1660.22 769.679 1654.48 769.679C1646.8 769.679 1639.12 769.679 1631.45 771.572V767.746V767.746ZM1723.59 696.711C1723.59 658.333 1744.69 633.379 1779.24 633.379C1813.8 633.379 1836.82 667.931 1836.82 700.563C1836.82 738.94 1809.94 763.894 1783.06 763.894C1746.61 763.894 1723.59 729.369 1723.59 696.711V696.711ZM1708.21 694.817C1708.21 737.047 1737.01 773.492 1783.06 773.492C1819.53 773.492 1852.16 742.792 1852.16 702.482C1852.16 666.011 1827.21 623.782 1775.38 623.782C1740.84 623.782 1708.21 654.481 1708.21 694.817V694.817ZM1873.3 642.99C1873.3 631.46 1867.53 629.54 1861.77 629.54V625.714H1921.28C1948.12 625.714 1967.33 637.218 1967.33 660.266C1967.33 687.113 1940.46 700.563 1915.5 700.563C1932.78 719.758 1948.14 737.034 1963.51 758.135C1971.18 765.814 1976.93 767.733 1982.69 767.733V771.559C1978.86 769.666 1975.01 769.666 1971.18 769.666C1965.41 769.666 1961.59 769.666 1955.83 771.559C1946.23 756.203 1923.17 727.436 1905.92 710.16C1896.32 698.63 1894.39 696.711 1894.39 694.804C1894.39 694.804 1894.39 692.885 1896.31 692.885H1907.81C1927.01 692.885 1951.96 687.113 1951.96 662.185C1951.96 641.057 1930.83 635.312 1909.73 635.312H1888.63V754.296C1888.63 765.827 1894.38 767.746 1900.14 767.746V771.572C1894.39 769.679 1888.63 769.679 1882.86 769.679C1877.11 769.679 1869.44 769.679 1861.76 771.572V767.746C1867.5 767.746 1873.29 765.827 1873.29 754.296V642.99H1873.3V642.99ZM2001.88 639.138C2001.88 631.46 1994.21 629.54 1990.35 629.54V625.714H2094.01C2094.01 637.218 2095.93 646.816 2097.83 656.414H2094.01C2088.26 644.883 2088.26 635.312 2072.88 635.312H2017.23V690.965H2053.7C2063.29 690.965 2065.2 685.219 2067.12 675.609H2070.97V713.986H2065.2C2065.2 704.389 2063.31 698.63 2053.7 698.63H2017.23V760.055H2074.8C2092.07 760.055 2095.93 750.457 2097.82 735.101H2103.59C2101.67 742.779 2099.74 761.949 2101.67 769.653H1990.34V765.801C1998.04 765.801 2001.87 765.801 2001.87 756.203V639.138H2001.88V639.138Z" fill="#D9B5A1"/>
</svg>
